<?xml version="1.0" standalone="no"?>
<!DOCTYPE svg PUBLIC "-//W3C//DTD SVG 1.1//EN" "http://www.w3.org/Graphics/SVG/1.1/DTD/svg11.dtd" >
<svg>
<metadata>
Created by FontForge 20090914 at Wed Feb 18 19:08:20 2015
 By www-data
</metadata>
<defs>
<font id="BoB" horiz-adv-x="833" >
  <font-face 
    font-family="BoB"
    font-weight="400"
    font-stretch="normal"
    units-per-em="1000"
    panose-1="0 0 0 0 0 0 0 0 0 0"
    ascent="750"
    descent="-250"
    x-height="558.5"
    cap-height="601.004"
    bbox="-75.1319 -376.109 928.255 930.251"
    underline-thickness="50"
    underline-position="-50"
    unicode-range="U+000D-U+007A"
  />
<missing-glyph horiz-adv-x="500" 
 />
    <glyph glyph-name=".notdef" horiz-adv-x="500" 
 />
    <glyph glyph-name="NULL" horiz-adv-x="0" 
 />
    <glyph glyph-name="NULL" horiz-adv-x="0" 
 />
    <glyph glyph-name="nonmarkingreturn" unicode="&#xd;" horiz-adv-x="500" 
 />
    <glyph glyph-name="space" unicode=" " horiz-adv-x="500" 
 />
    <glyph glyph-name="exclam" unicode="!" 
d="M417 -53c12 -0.666992 22.665 -3.00195 31.998 -7.00195c8 -3.33301 15 -8.5 21 -15.5s8.33301 -17.167 7 -30.5c0 -24 -4.66699 -42 -14 -54s-24.666 -18 -45.999 -18c-10 0 -19.167 2.33301 -27.5 7s-15.166 10.334 -20.499 17.001s-9.5 13.834 -12.5 21.501
s-4.5 14.5 -4.5 20.5c0 4.66699 0.666992 10.334 2 17.001s4.16602 13.167 8.49902 19.5s10.833 11.666 19.5 15.999s20.334 6.5 35.001 6.5zM434.998 573.998l16.0039 -182l6 -70c2 -23.333 4 -45 6 -65s3.66699 -37.333 5 -52s2.33301 -25 3 -31
c2.66699 -12 4 -25.333 4 -40s-1.83301 -28.834 -5.5 -42.501s-9.33398 -26 -17.001 -37s-17.5 -18.833 -29.5 -23.5s-23.667 -7.33398 -35 -8.00098s-21.166 1.5 -29.499 6.5s-14.833 13.833 -19.5 26.5s-6.33398 30 -5.00098 52c0 14 -0.5 32.667 -1.5 56
s-2.16699 48.5 -3.5 75.5s-2.83301 54.833 -4.5 83.5s-3.5 55.167 -5.5 79.5s-3.83301 45.5 -5.5 63.5s-2.83398 30 -3.50098 36c0 8.66699 0.666992 21.334 2 38.001s4.16602 33 8.49902 49s10.833 29.667 19.5 41s20.667 16.333 36 15
c14.667 -3.33301 26.167 -8.83301 34.5 -16.5s14.166 -15.5 17.499 -23.5c4 -9.33301 6.33301 -19.666 7 -30.999z" />
    <glyph glyph-name="quotedbl" unicode="&#x22;" 
d="M483 649c20 -10 37.001 -22.665 51.001 -37.998c12 -13.333 22.167 -30.5 30.5 -51.5s9.83301 -46.5 4.5 -76.5c-5.33301 -30.667 -12.666 -53.667 -21.999 -69s-18.5 -26 -27.5 -32s-17 -9 -24 -9h-12.5c-2 0 -6.83301 3 -14.5 9s-12.5 14.333 -14.5 25
c0 10.667 3.5 20.334 10.5 29.001s14.833 13 23.5 13c4 1.33301 8.33301 3.66602 13 6.99902s8 7.16602 10 11.499s2.16699 8.66602 0.5 12.999s-6.83398 8.16602 -15.501 11.499s-19.667 6.83301 -33 10.5s-25.833 8.66699 -37.5 15s-20.834 14.5 -27.501 24.5s-8 23 -4 39
c5.33301 16 11.833 28.833 19.5 38.5s15.5 16.834 23.5 21.501s16.167 7.5 24.5 8.5s15.5 0.833008 21.5 -0.5zM666.001 654.002c20 -9.33301 36.998 -21.668 50.998 -37.001c12 -13.333 22.167 -30.5 30.5 -51.5s9.83301 -46.833 4.5 -77.5
c-5.33301 -31.333 -12.666 -54.5 -21.999 -69.5s-18.5 -25.167 -27.5 -30.5s-17 -7.83301 -24 -7.5s-11.167 0.5 -12.5 0.5s-3.5 0.5 -6.5 1.5s-6.16699 2.83301 -9.5 5.5s-6.33301 5.83398 -9 9.50098s-4 8.16699 -4 13.5c-2.66699 13.333 -0.666992 24 6 32
s14.334 13 23.001 15c4.66699 0 9.33398 1.33301 14.001 4s8 6 10 10s2.16699 8.16699 0.5 12.5s-6.83398 8.16602 -15.501 11.499c-8.66699 4 -19.5 8 -32.5 12s-25.333 9.16699 -37 15.5s-20.667 14.333 -27 24s-6.83301 22.5 -1.5 38.5
c4 16.667 9.66699 29.834 17 39.501s15 16.834 23 21.501s16.333 7.16699 25 7.5s16.667 0.166016 24 -0.500977z" />
    <glyph glyph-name="numbersign" unicode="#" 
d="M635 481c18 0 32.6689 -6.99219 44.002 -20.9922s13.666 -33.333 6.99902 -58c-4 -14.667 -9.66699 -25.834 -17 -33.501s-15 -13.334 -23 -17.001s-15.667 -5.83398 -23 -6.50098s-13 -1 -17 -1c-3.33301 0 -8.66602 0.5 -15.999 1.5s-14.833 1.33301 -22.5 1
s-14.667 -2.33301 -21 -6s-10.5 -9.83398 -12.5 -18.501c-2 -7.33301 0 -12.333 6 -15s12.667 -4.66699 20 -6c8.66699 -1.33301 19.334 -1.33301 32.001 0c14.667 -0.666992 27.667 -2.66699 39 -6c9.33301 -3.33301 17.5 -8.5 24.5 -15.5s9.83301 -16.833 8.5 -29.5
c-2 -14 -5.66699 -25.333 -11 -34s-12.166 -15.334 -20.499 -20.001s-18.333 -7.66699 -30 -9s-24.834 -2 -39.501 -2s-26 -3 -34 -9s-13.667 -12.667 -17 -20c-4 -8 -6.33301 -17.333 -7 -28c0 -5.33301 -0.333008 -11.666 -1 -18.999
c-1.33301 -13.333 -3.33301 -28.666 -6 -45.999c-2 -7.33301 -4 -16.333 -6 -27s-5.5 -20.667 -10.5 -30s-11.833 -17.166 -20.5 -23.499s-20.334 -8.5 -35.001 -6.5c-14.667 0 -25.5 2.5 -32.5 7.5s-11.833 10.833 -14.5 17.5c-2.66699 7.33301 -3.66699 16 -3 26l11 42
l10 34c3.33301 11.333 6 19.666 8 24.999s3.66699 10.5 5 15.5s1.5 9.83301 0.5 14.5s-3.66699 8.66699 -8 12s-10.833 6 -19.5 8c-9.33301 1.33301 -17.5 0.666016 -24.5 -2.00098s-13.167 -6 -18.5 -10c-6 -4.66699 -11 -10.334 -15 -17.001l-29 -101
c-2.66699 -12.667 -7.33398 -22.667 -14.001 -30c-5.33301 -7.33301 -12.666 -12.666 -21.999 -15.999s-21.333 -2.33301 -36 3c-16 5.33301 -26 14.666 -30 27.999s-4.66699 28 -2 44s7.33398 32.5 14.001 49.5l18 44.5c4 12.667 4.16699 22 0.5 28
s-9.16699 10.167 -16.5 12.5s-15.5 3.33301 -24.5 3s-17.167 -0.5 -24.5 -0.5s-15.5 1.66699 -24.5 5s-17.5 8.16602 -25.5 14.499s-14.833 14 -20.5 23s-8.5 18.833 -8.5 29.5c0 11.333 3.66699 19.333 11 24s15.666 8 24.999 10c10.667 2 22.667 2.66699 36 2
c11.333 -1.33301 21.666 -2.66602 30.999 -3.99902c8 -1.33301 16 -2.16602 24 -2.49902s13.667 -0.5 17 -0.5c5.33301 0 10.666 -0.166992 15.999 -0.5s10.5 0.5 15.5 2.5s9.83301 5.5 14.5 10.5s8.66699 12.833 12 23.5c1.33301 9.33301 0.5 16 -2.5 20
s-7.16699 6.66699 -12.5 8c-6 2 -13 2.33301 -21 1c-12.667 -1.33301 -25 -2.33301 -37 -3c-10.667 -0.666992 -21.667 -0.833984 -33 -0.500977s-21.666 1.5 -30.999 3.5c-21.333 3.33301 -35.166 10.166 -41.499 20.499s-9.5 22.833 -9.5 37.5c0 9.33301 3 17 9 23
s12.667 11 20 15c8 4.66699 17.667 8.66699 29 12c14 -0.666992 28 -2 42 -4c12 -1.33301 25.167 -3 39.5 -5s28.166 -3.66699 41.499 -5c12.667 -2 22.334 -1.33301 29.001 2s11.667 7.66602 15 12.999c3.33301 6 5.33301 13 6 21l36 101c2 8 5.33301 14.667 10 20
c4 4.66699 9.66699 8.16699 17 10.5s17.666 1.83301 30.999 -1.5c12.667 -2 20.834 -7 24.501 -15s4.83398 -17 3.50098 -27s-4.16602 -19.833 -8.49902 -29.5s-8.5 -17.167 -12.5 -22.5c-2 -3.33301 -4 -8 -6 -14s-2.66699 -12 -2 -18s3.16699 -11.333 7.5 -16
s11.833 -8 22.5 -10c12.667 -2 23.167 0.833008 31.5 8.5s15.166 17.167 20.499 28.5s9.5 23 12.5 35s5.5 21.667 7.5 29c3.33301 5.33301 7.33301 12.166 12 20.499s10.5 16 17.5 23s15 12.833 24 17.5s19.833 6 32.5 4s21 -6 25 -12s5.66699 -12.667 5 -20
c-0.666992 -8 -3.33398 -16.667 -8.00098 -26c-1.33301 -8 -3.33301 -15.667 -6 -23s-5.83398 -15 -9.50098 -23s-8.16699 -16.667 -13.5 -26c-7.33301 -10.667 -11 -19 -11 -25s2.33301 -10.333 7 -13s10.667 -4.16699 18 -4.5s14.666 -0.5 21.999 -0.5zM469.002 330.008
c2 7.33301 1.6709 13.668 -0.996094 19.001s-6 9.66602 -10 12.999c-4.66699 4 -10.334 7.66699 -17.001 11c-7.33301 3.33301 -15.833 3.83301 -25.5 1.5s-18.167 -12.5 -25.5 -30.5c-5.33301 -9.33301 -7.83301 -17.166 -7.5 -23.499s2.16602 -11.5 5.49902 -15.5
s8 -6.83301 14 -8.5s11.667 -2.5 17 -2.5c11.333 -4 21.666 -1.83301 30.999 6.5s15.666 18.166 18.999 29.499z" />
    <glyph glyph-name="percent" unicode="%" 
d="M447 163c13.333 -2 25.665 -5.33496 36.998 -10.002c9.33301 -4 17.833 -10.167 25.5 -18.5s11.5 -19.5 11.5 -33.5c-3.33301 -28 -10.166 -49.167 -20.499 -63.5s-28.166 -21.5 -53.499 -21.5c-11.333 0 -21.166 2.5 -29.499 7.5s-15.333 11.333 -21 19
s-9.83398 15.667 -12.501 24s-4 15.833 -4 22.5c0 6 0.5 12.833 1.5 20.5s3.83301 15.334 8.5 23.001s11.5 14.334 20.5 20.001s21.167 9.16699 36.5 10.5zM328.999 579.998c13.333 -2 25.332 -5.33203 35.999 -9.99902c9.33301 -4 17.333 -10.167 24 -18.5
s9.33398 -19.5 8.00098 -33.5c-3.33301 -28 -10 -49 -20 -63s-26 -21 -48 -21c-12.667 0 -23.667 2.66699 -33 8s-17 12 -23 20s-10.5 16.167 -13.5 24.5s-4.5 15.5 -4.5 21.5c0 6.66699 0.666992 14.167 2 22.5s4.5 16.166 9.5 23.499s12.333 13.5 22 18.5
s23.167 7.5 40.5 7.5zM520.998 625.999c6 8.66699 12.6699 16 20.0029 22c6.66699 5.33301 14.667 9 24 11s20.666 0.333008 33.999 -5c14 -4 22.5 -12.667 25.5 -26s3 -27.833 0 -43.5s-7.83301 -30.667 -14.5 -45s-12 -24.833 -16 -31.5c-4 -4 -12.833 -16.667 -26.5 -38
l-49 -78l-61 -99.5l-62.5 -103l-52.5 -88.5c-15 -26 -25.5 -44.667 -31.5 -56c-8 -18.667 -16.833 -32.167 -26.5 -40.5s-19.167 -12.833 -28.5 -13.5s-18.5 1.83301 -27.5 7.5s-16.833 13.5 -23.5 23.5c-8.66699 10 -13.667 21.333 -15 34s-0.5 25.5 2.5 38.5
s7.66699 25.5 14 37.5s13.166 22.333 20.499 31c3.33301 4 10.166 13.833 20.499 29.5l37 57l47.5 74.5l52 83z" />
    <glyph glyph-name="ampersand" unicode="&#x26;" 
d="M632 174c10.667 0 19.666 -1.99609 26.999 -5.99609s13 -9 17 -15s6.33301 -12.667 7 -20s0.333984 -14 -0.999023 -20s-4 -11.833 -8 -17.5s-9 -10 -15 -13s-13.167 -4.16699 -21.5 -3.5s-17.833 4 -28.5 10c-12 6 -23.167 7.16699 -33.5 3.5s-20 -9.5 -29 -17.5
s-17.333 -17 -25 -27s-15.5 -18.667 -23.5 -26c-6 -8 -16.667 -15.833 -32 -23.5s-34 -12.5 -56 -14.5s-46.833 0.333008 -74.5 7s-56.5 20.667 -86.5 42c-30.667 20 -50.834 41.5 -60.501 64.5s-12.5 45.667 -8.5 68s13.167 43.833 27.5 64.5s29.833 38.667 46.5 54
s27.334 30.666 32.001 45.999s4.5 30.666 -0.5 45.999s-14 30.5 -27 45.5s-28.833 30.167 -47.5 45.5c-18 15.333 -30 30.166 -36 44.499s-8.66699 28.333 -8 42s3.33398 26.5 8.00098 38.5s8.66699 23.333 12 34c4.66699 10.667 13.834 19 27.501 25s28.167 10.333 43.5 13
c17.333 2.66699 36.666 4.33398 57.999 5.00098c12 0 28.167 -0.5 48.5 -1.5s41.166 -4.16699 62.499 -9.5s41.333 -13.666 60 -24.999s32.667 -27.666 42 -48.999c8 -21.333 10.833 -40.833 8.5 -58.5s-7.66602 -34.834 -15.999 -51.501s-18.833 -33.334 -31.5 -50.001
l-40 -55c-12 -20 -16.833 -36.333 -14.5 -49s7.66602 -23.334 15.999 -32.001s17.333 -16 27 -22s16.167 -12 19.5 -18c4.66699 -8 9.66699 -13 15 -15s10.333 -1.83301 15 0.5s8.66699 6.33301 12 12s5.66602 12.5 6.99902 20.5c2 8 6.66699 16 14 24s16 14.5 26 19.5
s20.167 7.33301 30.5 7s19.5 -5.16602 27.5 -14.499c8 -10.667 12 -20.667 12 -30s-2.16699 -17.833 -6.5 -25.5s-10 -14.5 -17 -20.5s-13.5 -11.333 -19.5 -16s-10.167 -9.33398 -12.5 -14.001s-2.66602 -9 -0.999023 -13s5 -6.83301 10 -8.5
s12.167 -1.83398 21.5 -0.500977zM355.999 606.004c-6 0 -12.333 -2.16895 -19 -6.50195s-13 -10.333 -19 -18s-11 -16.667 -15 -27s-6 -21.833 -6 -34.5c0 -12 2 -23.167 6 -33.5s9 -19.166 15 -26.499s12.333 -13.166 19 -17.499s13 -6.5 19 -6.5
c19.333 0 34.666 8 45.999 24s17 36 17 60c0 25.333 -5.66699 46 -17 62s-26.666 24 -45.999 24zM430.999 100.002c9.33301 13.333 12.1689 28.6689 8.50195 46.002s-13.167 33 -28.5 47c-6.66699 6.66699 -14.167 12.167 -22.5 16.5s-16.833 7 -25.5 8
s-16.834 0.333008 -24.501 -2s-13.834 -6.83301 -18.501 -13.5c-9.33301 -10 -12.166 -23.167 -8.49902 -39.5s13.167 -31.166 28.5 -44.499c6.66699 -7.33301 14.167 -13.333 22.5 -18s16.833 -7.83398 25.5 -9.50098s16.667 -1.83398 24 -0.500977
s13.666 4.66602 18.999 9.99902z" />
    <glyph glyph-name="quotesingle" unicode="'" 
d="M684 95c18 -9.33301 32.998 -20.665 44.998 -33.998c10.667 -12 19.5 -27.167 26.5 -45.5s8.16699 -40.833 3.5 -67.5c-4.66699 -27.333 -11.167 -48 -19.5 -62s-16.5 -23.667 -24.5 -29s-15 -8 -21 -8h-10c-2 0 -6.5 2.66699 -13.5 8s-11.5 12.666 -13.5 21.999
c0 9.33301 3.16699 18 9.5 26s13.166 12 20.499 12c4 0.666992 8 2.66699 12 6s7 6.83301 9 10.5s2.16699 7.5 0.5 11.5s-6.16699 7.33301 -13.5 10s-17 5.66699 -29 9s-23.167 7.83301 -33.5 13.5s-18.666 13.167 -24.999 22.5s-7.5 21 -3.5 35
c4.66699 14 10.334 25.167 17.001 33.5s13.834 14.666 21.501 18.999s15 6.83301 22 7.5s13.5 0.666992 19.5 0z" />
    <glyph glyph-name="parenleft" unicode="(" 
d="M153 557c4 22 10.333 41 19 57c7.33301 13.333 17.833 24.666 31.5 33.999s31.834 11 54.501 5c16 -3.33301 29.167 -8 39.5 -14s18.5 -13 24.5 -21s10.167 -16.667 12.5 -26s3.5 -18.666 3.5 -27.999c0 -22 -5.33301 -45.667 -16 -71l-26 -75l-28 -84l-34 -106
c-12 -36 -15.833 -68.833 -11.5 -98.5s11.666 -55.5 21.999 -77.5s21.333 -39.833 33 -53.5s18.5 -22.5 20.5 -26.5s6.5 -9.66699 13.5 -17s12.5 -16.333 16.5 -27s4.5 -23 1.5 -37s-13.5 -30 -31.5 -48s-35.833 -28.167 -53.5 -30.5s-33.167 -1.16602 -46.5 3.50098
c-16 5.33301 -31 14.333 -45 27c-38 30 -66 60.167 -84 90.5s-30 58.666 -36 84.999s-8 50.166 -6 71.499s4 38 6 50c0.666992 6.66699 3 17.834 7 33.501s9 34 15 55l19.5 68l21.5 72.5z" />
    <glyph glyph-name="parenright" unicode=")" 
d="M638 555l52.002 -185.997l20 -72l18 -67c5.33301 -20.667 9.83301 -38.834 13.5 -54.501s6.16699 -26.834 7.5 -33.501c2 -12 4.5 -28.5 7.5 -49.5s2 -44.667 -3 -71s-16 -54.333 -33 -84s-44.5 -59.5 -82.5 -89.5c-14 -12.667 -29 -21.667 -45 -27
c-13.333 -4.66699 -28.5 -5.83398 -45.5 -3.50098s-34.5 12.5 -52.5 30.5c-20 18 -32 34 -36 48s-4 26.333 0 37s10 19.334 18 26.001s14 12 18 16c2 4 8.66699 12.833 20 26.5s22.166 31.5 32.499 53.5s17.833 47.667 22.5 77s1 61.666 -11 96.999l-34 105l-28 83l-26 74
c-12 24.667 -18.667 48 -20 70c-0.666992 9.33301 0 18.666 2 27.999s5.83301 18 11.5 26s13.5 15 23.5 21s23 10.667 39 14c21.333 6 39.166 4.33301 53.499 -5s25.833 -20.666 34.5 -33.999c10 -16 17.667 -34.667 23 -56z" />
    <glyph glyph-name="asterisk" unicode="*" 
d="M535 631c14 1.33301 25.9961 1.00098 35.9961 -0.999023c8.66699 -2 16.167 -5.66699 22.5 -11s7.83301 -14.666 4.5 -27.999c-3.33301 -11.333 -7 -22.5 -11 -33.5s-6.5 -20.5 -7.5 -28.5s0.5 -14 4.5 -18s12.667 -4.66699 26 -2c14 2.66699 26.667 7.16699 38 13.5
s21.666 11 30.999 14s18.166 2.66699 26.499 -1s16.833 -14.167 25.5 -31.5c10 -16 13.167 -29.5 9.5 -40.5s-10.334 -19.5 -20.001 -25.5s-20 -9.33301 -31 -10s-18.5 1 -22.5 5c-5.33301 4.66699 -11.166 6 -17.499 4s-11.5 -5.83301 -15.5 -11.5
s-6.16699 -12.5 -6.5 -20.5s3.16699 -15.667 10.5 -23l24.5 -23.5c9 -8.33301 16.167 -17.333 21.5 -27s7.83301 -19.5 7.5 -29.5s-6.16602 -20 -17.499 -30c-12 -12 -23.333 -16.5 -34 -13.5s-20 8.5 -28 16.5c-9.33301 9.33301 -18 22 -26 38
c-5.33301 6 -10.666 11.667 -15.999 17l-13.5 11.5c-4.33301 3.66699 -8.16602 5.5 -11.499 5.5c-8.66699 0 -17.167 -6 -25.5 -18l-26.5 -40c-4 -7.33301 -10.333 -14 -19 -20s-17.667 -10 -27 -12s-18.333 -1.66699 -27 1s-15 9 -19 19c-4.66699 10 -6 18.833 -4 26.5
s5.5 14 10.5 19s10.167 9 15.5 12s9.33301 5.16699 12 6.5c2.66699 0 7 2 13 6s11.667 9.33301 17 16s9.83301 14.167 13.5 22.5s4.83398 16.833 3.50098 25.5c-2.66699 8.66699 -7.83398 13.667 -15.501 15s-15.667 1.33301 -24 0s-16 -3.33301 -23 -6s-11.5 -4 -13.5 -4
c-1.33301 -1.33301 -5.66602 -2 -12.999 -2s-14.666 2 -21.999 6s-13.666 10.667 -18.999 20s-6.33301 22.666 -3 39.999c4 17.333 9.5 30 16.5 38s14.167 12.833 21.5 14.5s14.833 0.666992 22.5 -3s14.5 -8.16699 20.5 -13.5c5.33301 -7.33301 12.666 -14.5 21.999 -21.5
s18.333 -11.5 27 -13.5s16.167 -0.666992 22.5 4s9.5 15 9.5 31s-1.16699 30.167 -3.5 42.5s-3.66602 23.166 -3.99902 32.499s1.5 17.333 5.5 24s12.667 12 26 16z" />
    <glyph glyph-name="plus" unicode="+" 
d="M368 509c0 3.33301 0.498047 8.00098 1.49805 14.001s4 11.833 9 17.5s13 10.5 24 14.5s26.5 6 46.5 6c20.667 0 35.334 -4.16699 44.001 -12.5s13.834 -18.666 15.501 -30.999s1.33398 -25.833 -0.999023 -40.5l-6.5 -41c-2 -11.333 -0.5 -20.833 4.5 -28.5
s11.833 -13.834 20.5 -18.501s18.667 -8 30 -10s22.333 -3 33 -3c13.333 0 23.833 -1.66699 31.5 -5s13.5 -8 17.5 -14s6.66699 -13.167 8 -21.5s2 -17.166 2 -26.499c0 -18 -6.5 -31 -19.5 -39s-38.167 -12 -75.5 -12c-18.667 0 -33 -3.5 -43 -10.5
s-17.333 -15.167 -22 -24.5s-7.33398 -18.333 -8.00098 -27s-1 -15 -1 -19v-22.5c0 -11 -1.83301 -22 -5.5 -33s-10.167 -20.333 -19.5 -28s-23.333 -9.5 -42 -5.5c-20 2 -35.167 8 -45.5 18s-17.666 21.667 -21.999 35s-6.5 27.166 -6.5 41.499v38.5
c0 11.333 -1.16699 20 -3.5 26s-6.16602 10.667 -11.499 14s-12.833 5.66602 -22.5 6.99902l-36.5 5c-14.667 1.33301 -26.334 3.16602 -35.001 5.49902s-15.334 5.83301 -20.001 10.5s-7.66699 10.834 -9 18.501s-2 18.167 -2 31.5c0 26 9 42 27 48s43.667 7.33301 77 4
c16.667 -2 29 -0.833008 37 3.5s13.667 9.5 17 15.5c3.33301 7.33301 5 16 5 26l7 73v0z" />
    <glyph glyph-name="comma" unicode="," 
d="M606 144c25.333 -12.667 47.0059 -28.9961 65.0059 -48.9961c15.333 -17.333 28.166 -39.333 38.499 -66s12.166 -59 5.49902 -97c-6.66699 -39.333 -15.834 -68.833 -27.501 -88.5s-23.334 -33.334 -35.001 -41.001s-22 -11.5 -31 -11.5h-15.5
c-2.66699 0 -8.83398 4 -18.501 12s-15.834 18.667 -18.501 32c0 13.333 4.33301 25.666 13 36.999s18.667 17 30 17c5.33301 1.33301 11 4.16602 17 8.49902s10.333 9.16602 13 14.499s2.83398 10.833 0.500977 16.5s-8.83301 10.5 -19.5 14.5
c-11.333 4 -25.333 8.33301 -42 13s-32.5 11.167 -47.5 19.5s-26.833 19 -35.5 32s-10.334 29.5 -5.00098 49.5c6.66699 20 14.834 36.167 24.501 48.5s19.667 21.5 30 27.5s20.666 9.66699 30.999 11s19.5 1.33301 27.5 0z" />
    <glyph glyph-name="hyphen" unicode="-" 
d="M309 364c8.66699 -1.33301 17.001 -3.33301 25.001 -6c7.33301 -2 15 -4.66699 23 -8s15.667 -7.33301 23 -12c4 -2 14.5 -4.16699 31.5 -6.5s36.5 -4 58.5 -5s44.667 -1.33301 68 -1s43.666 1.5 60.999 3.5c36 4.66699 62.667 -0.166016 80 -14.499s26 -41.5 26 -81.5
c0 -22 -6 -38 -18 -48s-25.833 -16.833 -41.5 -20.5s-30.667 -5 -45 -4s-23.5 1.5 -27.5 1.5c-3.33301 0 -10.333 0.5 -21 1.5l-39 3.5c-15.333 1.33301 -32 2.66602 -50 3.99902l-52.5 4c-17 1.33301 -33 2.5 -48 3.5s-26.833 1.5 -35.5 1.5
c-13.333 2 -29.5 3.66699 -48.5 5s-37.333 5 -55 11s-32.667 15.833 -45 29.5s-18.5 33.5 -18.5 59.5c0 24 7.66699 41.667 23 53s32.333 19 51 23c22 4.66699 47 5.66699 75 3z" />
    <glyph glyph-name="period" unicode="." 
d="M715 41c15.333 -5.33301 28.334 -12.333 39.001 -21c9.33301 -7.33301 16.166 -17 20.499 -29s2.83301 -26.667 -4.5 -44c-8 -17.333 -17.833 -30.333 -29.5 -39s-23 -14.5 -34 -17.5s-20.833 -3.83301 -29.5 -2.5s-14 3 -16 5c-2 0 -7.5 2 -16.5 6
s-17.667 9.83301 -26 17.5s-14.5 17.334 -18.5 29.001s-2 25.167 6 40.5c10 17.333 19.333 30 28 38s17.5 13.167 26.5 15.5s17.833 3.16602 26.5 2.49902s18 -1 28 -1z" />
    <glyph glyph-name="slash" unicode="/" 
d="M601 511c6.66699 10.667 15.335 19.666 26.002 26.999c9.33301 6 20.5 10.5 33.5 13.5s28.5 0.833008 46.5 -6.5c15.333 -5.33301 24.166 -16 26.499 -32s1.33301 -33.667 -3 -53s-10.5 -38 -18.5 -56s-14.667 -31.333 -20 -40c-2.66699 -3.33301 -9 -13 -19 -29
l-37.5 -60.5l-50.5 -82l-57.5 -94l-58.5 -97l-54 -89.5l-44.5 -73l-28.5 -47c-10.667 -23.333 -21.5 -40.166 -32.5 -50.499s-22.167 -16 -33.5 -17s-22.5 2 -33.5 9s-21.833 16.5 -32.5 28.5c-10.667 12.667 -16.834 27 -18.501 43s-0.5 32 3.5 48s10 31.5 18 46.5
s16.333 27.833 25 38.5c5.33301 4.66699 14.5 16.667 27.5 36l46.5 71l59 92.5l64 102.5z" />
    <glyph glyph-name="zero" unicode="0" 
d="M665 382c0 -29.333 0.168945 -62.002 0.501953 -98.002s-1.16699 -72.333 -4.5 -109s-9.83301 -72.167 -19.5 -106.5s-24.167 -64.833 -43.5 -91.5s-45 -48.167 -77 -64.5s-72.333 -24.5 -121 -24.5c-46.667 7.33301 -86.334 22.666 -119.001 45.999
c-14 10 -27.167 22.167 -39.5 36.5s-22.166 31.5 -29.499 51.5s-11.666 43 -12.999 69s2 55.667 10 89c17.333 66.667 35.666 126.5 54.999 179.5s40.833 96.833 64.5 131.5s50.667 59.334 81 74.001s65.166 17.334 104.499 8.00098c28 -5.33301 53 -15.666 75 -30.999
c9.33301 -6.66699 18.666 -14.667 27.999 -24s17.5 -20.5 24.5 -33.5s12.667 -28 17 -45s6.5 -36.167 6.5 -57.5zM434.002 58.998c14.667 0 29.002 4.16699 43.002 12.5s26.833 20 38.5 35s21.5 32.333 29.5 52s14 41.167 18 64.5c7.33301 50 4 90 -10 120s-36 45 -66 45
c-30.667 0 -57.334 -15 -80.001 -45s-37.667 -70 -45 -120c-4 -23.333 -5.33301 -44.833 -4 -64.5s5.16602 -37 11.499 -52s14.833 -26.667 25.5 -35s23.667 -12.5 39 -12.5z" />
    <glyph glyph-name="one" unicode="1" 
d="M213 563c8.66699 4 21.0068 8.66504 37.0068 13.998s34.5 10.5 55.5 15.5l68 15.5c24.333 5.33301 49.166 10 74.499 14c27.333 4 47.833 0.833008 61.5 -9.5s23.5 -22.166 29.5 -35.499c7.33301 -16 10.666 -34.667 9.99902 -56c-2 -82 -4 -156.333 -6 -223
c-0.666992 -28.667 -1.5 -57 -2.5 -85s-2 -53.833 -3 -77.5s-2 -43.667 -3 -60s-1.83301 -27.166 -2.5 -32.499c-2 -10 -5.33301 -20.833 -10 -32.5s-11.834 -22.5 -21.501 -32.5s-22.167 -18.333 -37.5 -25s-34.333 -10 -57 -10c-25.333 -2.66699 -44.333 -0.666992 -57 6
s-21.667 14.667 -27 24c-6 10.667 -8.66699 22.667 -8 36c4 57.333 7.33301 110.666 10 159.999l4 63c1.33301 21.333 2.66602 41.5 3.99902 60.5s2.66602 36 3.99902 51s2.66602 26.5 3.99902 34.5c2 16.667 -0.5 26.667 -7.5 30s-15.333 3.33301 -25 0
s-19 -7.66602 -28 -12.999s-14.5 -8 -16.5 -8c-2 -2 -7.33301 -5.5 -16 -10.5s-19 -8.33301 -31 -10s-24.833 -0.166992 -38.5 4.5s-26.834 15.667 -39.501 33c-10.667 25.333 -12.667 47.833 -6 67.5s16 36.167 28 49.5c14 16 31.667 30 53 42z" />
    <glyph glyph-name="two" unicode="2" 
d="M321 577c1.33301 0 7.3291 -0.168945 17.9961 -0.501953s24 -1.33301 40 -3s33.5 -4.16699 52.5 -7.5s37.333 -8.33301 55 -15s33.834 -15.167 48.501 -25.5s25.334 -22.833 32.001 -37.5c12.667 -21.333 17 -44.833 13 -70.5s-12.667 -51.667 -26 -78
s-29.5 -52.166 -48.5 -77.499s-37.167 -48 -54.5 -68c-17.333 -18.667 -29 -34.334 -35 -47.001s-8.5 -24.167 -7.5 -34.5s4 -20.166 9 -29.499s10.167 -19.666 15.5 -30.999c4.66699 -9.33301 14.5 -15.666 29.5 -18.999s31.5 -4.5 49.5 -3.5s35.333 3.66699 52 8
s29 9.16602 37 14.499c6.66699 4 17.334 7.16699 32.001 9.5s30 2.16602 46 -0.500977s31.333 -8.5 46 -17.5s25.667 -22.5 33 -40.5c4.66699 -18.667 5 -35.334 1 -50.001s-10.5 -26.667 -19.5 -36s-19.833 -15.666 -32.5 -18.999s-25.334 -3 -38.001 1
c-15.333 5.33301 -33.5 7.66602 -54.5 6.99902s-45.667 -2 -74 -4s-60.5 -3.33301 -96.5 -4s-76.333 1.66602 -121 6.99902c-22 2.66699 -40.333 6.66699 -55 12s-26.334 11.5 -35.001 18.5s-15 14.5 -19 22.5s-6.33301 16 -7 24c-2 18.667 3.66699 39 17 61l75 125l31 51
l31 50l27.5 44.5l21.5 34.5c12 18.667 18.833 33.167 20.5 43.5s0.833984 17.833 -2.49902 22.5c-3.33301 5.33301 -9.33301 8.33301 -18 9c-7.33301 0.666992 -14.333 -0.666016 -21 -3.99902c-5.33301 -3.33301 -11 -8.66602 -17 -15.999s-10.333 -18.333 -13 -33
c-2 -15.333 -6.66699 -28.166 -14 -38.499s-15.166 -18.666 -23.499 -24.999s-16.333 -10.833 -24 -13.5s-12.5 -4 -14.5 -4c-4.66699 0 -15.167 1 -31.5 3s-33.666 7.66699 -51.999 17s-35.833 23.166 -52.5 41.499s-27.667 44.166 -33 77.499
c2 19.333 6.66699 36.333 14 51s16 27.334 26 38.001s21 19.5 33 26.5s24.333 12.833 37 17.5c28.667 10.667 61 16 97 16z" />
    <glyph glyph-name="three" unicode="3" 
d="M248 683c19.333 2 42.6621 2.00195 69.9951 0.00195312s55.666 -6 84.999 -12s58.166 -13.833 86.499 -23.5s53.166 -20.834 74.499 -33.501c22 -12.667 38.667 -26 50 -40s19 -29 23 -45s4.66699 -33.167 2 -51.5s-7.33398 -38.166 -14.001 -59.499
c-8.66699 -21.333 -14.667 -39.5 -18 -54.5s-3.66602 -29.167 -0.999023 -42.5s8.33398 -27 17.001 -41s20.334 -30.667 35.001 -50c12.667 -19.333 20.5 -38.833 23.5 -58.5s2.5 -39.5 -1.5 -59.5s-11 -40.833 -21 -62.5s-21.333 -44.167 -34 -67.5
c-15.333 -26 -34.166 -47.667 -56.499 -65s-46.166 -30.666 -71.499 -39.999s-50.666 -15.166 -75.999 -17.499s-48.666 -1.5 -69.999 2.5c-23.333 6.66699 -48.166 15.667 -74.499 27s-49.166 25 -68.499 41s-32.666 34.167 -39.999 54.5s-3.66602 42.166 11.001 65.499
c15.333 25.333 34.166 39.5 56.499 42.5s45.5 0.5 69.5 -7.5s47.5 -18.5 70.5 -31.5s43.167 -22.833 60.5 -29.5c19.333 -4 37.333 -2.16699 54 5.5s30.5 19 41.5 34s18.833 32.5 23.5 52.5s5 40.667 1 62c-6 22 -15.833 36 -29.5 42s-27.667 8.33301 -42 7
s-27.666 -5 -39.999 -11l-24.5 -12c-6.66699 -2 -15.834 -4 -27.501 -6s-23.5 -2 -35.5 0s-22.667 7.33301 -32 16s-15 22.667 -17 42s1.83301 34.166 11.5 44.499s21.5 18 35.5 23s28 7.83301 42 8.5s24 1 30 1c6.66699 0 16 2.83301 28 8.5s22.667 14.334 32 26.001
s15 26.667 17 45s-3.33301 40.166 -16 65.499c-13.333 23.333 -30 39.5 -50 48.5s-40.667 14 -62 15s-41.833 -0.333008 -61.5 -4s-35.834 -6.5 -48.501 -8.5c-13.333 -2 -27 -3.33301 -41 -4s-26.833 1.16602 -38.5 5.49902s-21.334 11.833 -29.001 22.5
s-11.5 25.667 -11.5 45c2 21.333 8.33301 37.666 19 48.999s22.334 19.666 35.001 24.999c14 6.66699 30 10.334 48 11.001z" />
    <glyph glyph-name="four" unicode="4" 
d="M331 615c16 20 32.4961 34.666 49.4961 43.999s33.5 14.833 49.5 16.5s30.667 -0.333008 44 -6s24 -13.5 32 -23.5c10 -10 16.5 -22.167 19.5 -36.5s3 -28.666 0 -42.999s-9 -27.166 -18 -38.499s-20.5 -19 -34.5 -23c-13.333 -6 -28 -15 -44 -27
s-31.667 -25.833 -47 -41.5s-29.5 -32 -42.5 -49s-23.5 -33.5 -31.5 -49.5c-10 -14 -12.667 -23.833 -8 -29.5s13 -9 25 -10s25.5 -0.333008 40.5 2s27.5 4.5 37.5 6.5s17.167 5.66699 21.5 11s7.16602 11.666 8.49902 18.999s1.83301 15.333 1.5 24s-0.5 17 -0.5 25
c0 10 0.666992 19.667 2 29s4 17.666 8 24.999s9.5 13.333 16.5 18s16.5 7 28.5 7c14 0 24.333 -3.66699 31 -11s11.5 -17.166 14.5 -29.499s5 -26.666 6 -42.999s2.5 -33.5 4.5 -51.5c0 -16 4.33301 -26.833 13 -32.5s18.834 -8.83398 30.501 -9.50098
s23.834 0.5 36.501 3.5l31 7.5c11.333 4 23.5 1 36.5 -9s21.833 -23 26.5 -39c0 -8 -1 -16.167 -3 -24.5s-6.16699 -16 -12.5 -23s-15.833 -12.667 -28.5 -17s-29.667 -6.5 -51 -6.5c-20 0 -33.667 -5.5 -41 -16.5s-11 -24.167 -11 -39.5s2.33301 -31 7 -47s9 -29 13 -39
c2 -12 4.33301 -28.667 7 -50s3 -42.333 1 -63s-7.5 -38.667 -16.5 -54s-24.5 -23 -46.5 -23c-24 0 -41.167 9.5 -51.5 28.5s-17.166 42 -20.499 69s-4.83301 55.333 -4.5 85s-0.5 55.5 -2.5 77.5s-8.66699 37.333 -20 46s-26.666 13.667 -45.999 15s-42 0.833008 -68 -1.5
s-55 -3.5 -87 -3.5s-55.167 5.66699 -69.5 17s-23.166 25.5 -26.499 42.5s-2.83301 35 1.5 54s9.5 36.5 15.5 52.5c4 8.66699 9.5 19.5 16.5 32.5l23.5 42l28 47l30 47.5z" />
    <glyph glyph-name="five" unicode="5" 
d="M610 607c45.333 -4 74.333 -16.999 87 -38.999s11 -57.667 -5 -107c-8 -26 -18.667 -41.5 -32 -46.5s-27.5 -4.66699 -42.5 1s-29.667 13.667 -44 24s-26.5 17.5 -36.5 21.5c-10 2 -24.167 5 -42.5 9s-37.166 6.5 -56.499 7.5s-37.166 -0.666992 -53.499 -5
s-27.5 -13.5 -33.5 -27.5s-6.66699 -25.333 -2 -34s14 -16.667 28 -24s32.5 -15.833 55.5 -25.5s49.833 -22.5 80.5 -38.5c30.667 -14 55.667 -32.833 75 -56.5s33 -49.834 41 -78.501s10.333 -59.334 7 -92.001s-12 -65 -26 -97c-14 -32.667 -30.833 -60.334 -50.5 -83.001
s-41.5 -40.834 -65.5 -54.501s-49.5 -23.167 -76.5 -28.5s-54.5 -7 -82.5 -5c-28.667 4 -53 13.333 -73 28s-35.333 31.334 -46 50.001s-16.334 38 -17.001 58s4 37 14 51c10 16 20.5 27.333 31.5 34s22.667 10 35 10s25.166 -2.66699 38.499 -8s27 -12 41 -20
c32.667 -16 59.834 -17.667 81.501 -5s32.5 41.334 32.5 86.001c0 22 -6.66699 40.833 -20 56.5s-30 28.334 -50 38.001s-41.333 16.667 -64 21s-43 6.5 -61 6.5c-16 0 -29.833 7 -41.5 21s-21.334 30 -29.001 48s-13.667 36 -18 54l-9.5 39c-4 8 -7 18.333 -9 31
s-1.33301 26.167 2 40.5s10.666 28.666 21.999 42.999s28 27.5 50 39.5c12 4.66699 26.5 9.33398 43.5 14.001s35.167 8.83398 54.5 12.501s39.333 7 60 10s41 5.5 61 7.5c46.667 5.33301 95.334 9.66602 146.001 12.999z" />
    <glyph glyph-name="six" unicode="6" 
d="M556 256c38 -25.333 65.832 -51.4971 83.499 -78.4971s29.334 -53 35.001 -78s7.5 -48 5.5 -69s-4 -37.833 -6 -50.5c-2 -14.667 -9.33301 -32 -22 -52s-30.167 -39.5 -52.5 -58.5s-49.666 -35.5 -81.999 -49.5s-69.166 -22 -110.499 -24
c-28 -1.33301 -56.333 2.5 -85 11.5s-55.5 23 -80.5 42s-47.167 42.667 -66.5 71s-33.666 61 -42.999 98s-12.5 78 -9.5 123s14.167 94.167 33.5 147.5c15.333 40 32.333 75 51 105s37.834 56.167 57.501 78.5s39.5 41.166 59.5 56.499s39.333 28 58 38
c43.333 23.333 87.666 36.666 132.999 39.999c37.333 4 67.166 -0.166992 89.499 -12.5s38.333 -28.166 48 -47.499s13.167 -39.833 10.5 -61.5s-10.334 -39.834 -23.001 -54.501c-8.66699 -10 -18 -15.5 -28 -16.5s-20.667 0.333008 -32 4s-22.5 8.5 -33.5 14.5
s-21.667 11.333 -32 16s-19.833 7.33398 -28.5 8.00098s-15.667 -2.33301 -21 -9c-8 -8.66699 -14.833 -18.834 -20.5 -30.501s-6.5 -25.334 -2.5 -41.001s14.667 -33.5 32 -53.5s44.666 -42.333 81.999 -67zM433.999 -37.9971c16 0 30.834 2.5 44.501 7.5
s25.334 11.667 35.001 20s17.167 17.666 22.5 27.999s8 20.833 8 31.5c0 34 -10.167 60.833 -30.5 80.5s-46.833 29.5 -79.5 29.5c-22.667 0 -42.834 -9.83301 -60.501 -29.5s-26.5 -46.5 -26.5 -80.5c0 -10.667 2.5 -21.167 7.5 -31.5s11.5 -19.666 19.5 -27.999
s17.167 -15 27.5 -20s21.166 -7.5 32.499 -7.5z" />
    <glyph glyph-name="seven" unicode="7" 
d="M278 677c21.333 4.66699 43.6689 8.33496 67.002 11.002c20 2 42.833 3.16699 68.5 3.5s52.167 -1.5 79.5 -5.5c28.667 -2 49.167 -10.333 61.5 -25s19.5 -31.167 21.5 -49.5s0.666992 -36.833 -4 -55.5s-9.33398 -33 -14.001 -43c-2 -10.667 -3.66699 -23 -5 -37
l-4 -43.5c-1.33301 -15 -3.16602 -29.833 -5.49902 -44.5s-5.5 -28.334 -9.5 -41.001c-4 -14.667 -5.66699 -25.834 -5 -33.501s3.16699 -13 7.5 -16s10 -4.16699 17 -3.5s14.5 2 22.5 4c6 0 13.167 -2 21.5 -6s16.5 -9.33301 24.5 -16s14.667 -14.5 20 -23.5
s8 -18.5 8 -28.5c0 -16.667 -7.33301 -32.167 -22 -46.5s-40.667 -23.833 -78 -28.5c-16.667 0 -29.5 -2.66699 -38.5 -8s-15.5 -11 -19.5 -17c-4.66699 -7.33301 -7.33398 -15.666 -8.00098 -24.999c0 -2 -0.833008 -11.5 -2.5 -28.5l-5.5 -58
c-2 -21.667 -3.83301 -43.167 -5.5 -64.5s-2.5 -37 -2.5 -47s-1.83301 -22 -5.5 -36s-9.83398 -26.833 -18.501 -38.5s-20.5 -20.334 -35.5 -26.001s-33.833 -5.5 -56.5 0.5c-25.333 4 -42.333 11.5 -51 22.5s-13.667 22.167 -15 33.5
c-1.33301 13.333 1.33398 28 8.00098 44l24 79l21.5 67.5c7.66699 23.667 14.834 43.834 21.501 60.501c4 16.667 4.66699 28.667 2 36s-7.66699 12 -15 14s-16.5 2.5 -27.5 1.5s-22.5 -1.5 -34.5 -1.5c-20.667 0 -38.167 4.66699 -52.5 14s-21.5 26.666 -21.5 51.999
c2 12 6.5 21.167 13.5 27.5s16.167 11 27.5 14s24.666 4.83301 39.999 5.5s32.333 1 51 1s32.667 3.66699 42 11s16.333 17.666 21 30.999s8.16699 29.833 10.5 49.5s5.5 41.834 9.5 66.501c2 24.667 -3.16699 42 -15.5 52s-27.5 16 -45.5 18s-36.833 1.83301 -56.5 -0.5
s-35.834 -3.5 -48.501 -3.5c-14.667 -2 -29.667 -3 -45 -3s-29.5 2.5 -42.5 7.5s-23.667 13.667 -32 26s-12.5 29.833 -12.5 52.5s7.66699 40.5 23 53.5s32.333 22.833 51 29.5c22 7.33301 47 12.333 75 15z" />
    <glyph glyph-name="eight" unicode="8" 
d="M652 67c9.33301 -20.667 17.1719 -43.333 23.5049 -68s8.5 -49.334 6.5 -74.001s-9.16699 -48.834 -21.5 -72.501s-32.5 -44.834 -60.5 -63.501s-58.667 -33.167 -92 -43.5s-66 -15.666 -98 -15.999s-61.833 4.33398 -89.5 14.001s-49.834 24.834 -66.501 45.501
s-30.667 39.5 -42 56.5s-16.333 34.833 -15 53.5s10.833 39.5 28.5 62.5s47.167 50.5 88.5 82.5c41.333 34 69.166 65.667 83.499 95s20.666 55.5 18.999 78.5s-8 42.333 -19 58s-21.167 26.167 -30.5 31.5c-9.33301 7.33301 -22.166 16.5 -38.499 27.5s-31 24.5 -44 40.5
s-22.167 35 -27.5 57s-1.33301 48 12 78c6.66699 16 15 29.5 25 40.5s21 20.167 33 27.5s24.667 12.833 38 16.5s26.666 6.5 39.999 8.5c30.667 3.33301 63 2.33301 97 -3c41.333 -13.333 74 -29.666 98 -48.999s40.5 -41 49.5 -65s10.833 -49.833 5.5 -77.5
s-16.333 -56.5 -33 -86.5s-25.834 -56.333 -27.501 -79s0.5 -43.667 6.5 -63s14.167 -37.833 24.5 -55.5s19.166 -36.834 26.499 -57.501zM465.006 -158.999c9.33301 0 18.667 2.16797 28 6.50098s17.5 10.166 24.5 17.499s12.667 15.5 17 24.5s6.5 18.167 6.5 27.5
c0 30 -7.83301 53.667 -23.5 71s-33.167 26 -52.5 26c-28.667 0 -51.667 -8.66699 -69 -26s-26 -41 -26 -71c0 -18.667 8.66699 -36 26 -52s40.333 -24 69 -24zM485.007 347.002c15.333 0 29.334 7.16699 42.001 21.5s19 33.166 19 56.499c0 15.333 -6.33301 29.333 -19 42
s-26.667 19 -42 19c-8 0 -15.667 -1.83301 -23 -5.5s-13.833 -8.33398 -19.5 -14.001s-10.334 -12.167 -14.001 -19.5s-5.5 -14.666 -5.5 -21.999c0 -23.333 6.5 -42.166 19.5 -56.499s27.167 -21.5 42.5 -21.5z" />
    <glyph glyph-name="nine" unicode="9" 
d="M640 510c8.66699 -11.333 14.333 -24.835 17 -40.502s3.66699 -31.167 3 -46.5c-0.666992 -17.333 -2.66699 -35.333 -6 -54l-54 -238l-20 -89l-18 -79c-5.33301 -23.333 -10 -42.666 -14 -57.999l-7 -27c0 -5.33301 -0.666992 -13.333 -2 -24
s-4.83301 -21.167 -10.5 -31.5s-14 -19.333 -25 -27s-26.167 -10.5 -45.5 -8.5c-19.333 3.33301 -32.333 11 -39 23s-10.334 24.667 -11.001 38c-0.666992 15.333 1.66602 32.333 6.99902 51l47 156l17.5 60.5l15.5 56l12 44.5c3.33301 12.667 5.33301 21.667 6 27
c4 10.667 4.33301 17.334 1 20.001s-8.16602 3 -14.499 1s-12.833 -5.16699 -19.5 -9.5s-11.667 -8.16602 -15 -11.499c-5.33301 -3.33301 -16.666 -8.66602 -33.999 -15.999s-37 -11.333 -59 -12s-44.333 4.16602 -67 14.499s-42 31.166 -58 62.499
c-8.66699 18.667 -14 36.167 -16 52.5s-1.66699 31.666 1 45.999s7.16699 27.5 13.5 39.5s13.5 23 21.5 33c18.667 22.667 42.667 42.667 72 60c45.333 24.667 85 39.834 119 45.501s63 6 87 1s43.667 -13.5 59 -25.5s27.333 -23.333 36 -34zM439.999 311.998
c8 0 15.833 1.83203 23.5 5.49902s14.667 9 21 16s11.5 15.333 15.5 25s6 20.834 6 33.501c0 8.66699 -2 17 -6 25s-9.16699 15.167 -15.5 21.5s-13.333 11.333 -21 15s-15.5 5.5 -23.5 5.5s-15.833 -1.83301 -23.5 -5.5s-14.667 -8.66699 -21 -15s-11.333 -13.5 -15 -21.5
s-5.5 -16.333 -5.5 -25c0 -25.333 6.83301 -45 20.5 -59s28.5 -21 44.5 -21z" />
    <glyph glyph-name="colon" unicode=":" 
d="M431 500c14.667 -2 27.998 -5.66602 39.998 -10.999c9.33301 -4.66699 17.833 -11.667 25.5 -21s10.834 -21.666 9.50098 -36.999c0 -62 -25 -93 -75 -93c-12.667 0 -24 2.83301 -34 8.5s-18.5 12.5 -25.5 20.5s-12.333 16.667 -16 26s-5.5 18 -5.5 26c0 6 1 13.333 3 22
s5.83301 17.167 11.5 25.5s13.834 15.666 24.501 21.999s24.667 10.166 42 11.499zM430.998 179.001c14.667 -2 27.998 -5.66699 39.998 -11c9.33301 -4.66699 17.833 -11.5 25.5 -20.5s10.834 -21.167 9.50098 -36.5c0 -62.667 -25 -94 -75 -94c-12.667 0 -24 3 -34 9
s-18.5 13.333 -25.5 22s-12.333 17.667 -16 27s-5.5 17 -5.5 23c0 8 1 16.667 3 26s5.83301 18 11.5 26s13.834 14.833 24.501 20.5s24.667 8.5 42 8.5z" />
    <glyph glyph-name="semicolon" unicode=";" 
d="M431 500c14.667 -2 27.998 -5.66602 39.998 -10.999c9.33301 -4.66699 17.833 -11.667 25.5 -21s10.834 -21.666 9.50098 -36.999c0 -62 -25 -93 -75 -93c-12.667 0 -24 2.83301 -34 8.5s-18.5 12.5 -25.5 20.5s-12.333 16.667 -16 26s-5.5 18 -5.5 26c0 6 1 13.333 3 22
s5.83301 17.167 11.5 25.5s13.834 15.666 24.501 21.999s24.667 10.166 42 11.499zM421.998 267.001c21.333 -11.333 40 -25.665 56 -42.998c13.333 -15.333 24.5 -34.333 33.5 -57s10.5 -50.667 4.5 -84c-6 -34 -14 -59.5 -24 -76.5s-20 -28.833 -30 -35.5
s-18.833 -10 -26.5 -10h-13.5c-2 0 -7.33301 3.33301 -16 10s-14 16 -16 28c0 11.333 3.83301 22 11.5 32s16.167 15 25.5 15c4.66699 0.666992 9.5 3 14.5 7s8.83301 8.33301 11.5 13s3 9.5 1 14.5s-7.66699 9.16699 -17 12.5s-21.333 7 -36 11s-28.5 9.5 -41.5 16.5
s-23.333 16.167 -31 27.5s-9.16699 25.666 -4.5 42.999c6 18 13.167 32.167 21.5 42.5s17 18.166 26 23.499s17.833 8.5 26.5 9.5s16.667 1.16699 24 0.5z" />
    <glyph glyph-name="A" unicode="A" 
d="M779 -35c14 -40 22.666 -73.834 25.999 -101.501s1 -50.5 -7 -68.5s-22 -31.833 -42 -41.5s-46 -16.167 -78 -19.5c-32.667 0 -57.834 8.16699 -75.501 24.5s-31.5 37.5 -41.5 63.5s-17.667 55.333 -23 88s-11.666 65.334 -18.999 98.001
c-4.66699 24 -10.5 38.667 -17.5 44s-14.667 4.5 -23 -2.5s-17 -18.667 -26 -35s-18 -34.333 -27 -54l-26.5 -59.5c-8.66699 -20 -16.667 -37.333 -24 -52c-7.33301 -22 -17.166 -43.833 -29.499 -65.5s-27.5 -40.167 -45.5 -55.5s-38.833 -25.666 -62.5 -30.999
s-49.834 -2.66602 -78.501 8.00098c-25.333 10.667 -47.333 26.167 -66 46.5s-32 43.166 -40 68.499s-9.66699 51.833 -5 79.5s17.667 54.167 39 79.5c8.66699 12.667 19.334 34.5 32.001 65.5s26.334 67.5 41.001 109.5s29.667 87.833 45 137.5l46 149.5l110 387
c6 21.333 15 40 27 56c10 13.333 23.167 25 39.5 35s37.166 13.333 62.499 10c21.333 -4 39.5 -13.333 54.5 -28s27.5 -32.334 37.5 -53.001s18 -43 24 -67s11 -46.667 15 -68c2 -12 6.16699 -34.833 12.5 -68.5l22 -119.5l28 -149c10.333 -53.333 21 -105.666 32 -156.999
s21.833 -99.333 32.5 -144s21 -81.334 31 -110.001zM489.999 265.999c10.667 0 18.167 3.66602 22.5 10.999s7.16602 15.666 8.49902 24.999c1.33301 10.667 0.666016 23 -2.00098 37l-14 100c2 2 3 4.33301 3 7c0 2 -1.16699 3.83301 -3.5 5.5s-7.16602 2.5 -14.499 2.5
s-13 -2.33301 -17 -7s-6.66699 -9.66699 -8 -15c-2.66699 -6.66699 -3.66699 -13.667 -3 -21v-72c0 -7.33301 0.166992 -15.166 0.5 -23.499s1.33301 -16.166 3 -23.499s4.33398 -13.5 8.00098 -18.5s9.16699 -7.5 16.5 -7.5z" />
    <glyph glyph-name="B" unicode="B" 
d="M617 78c38.667 -22.667 68.6709 -46.6709 90.0039 -72.0039s34.833 -50.833 40.5 -76.5s4 -51.167 -5 -76.5s-24.833 -49.333 -47.5 -72c-14.667 -17.333 -33.334 -31.833 -56.001 -43.5s-46.834 -21.167 -72.501 -28.5s-52 -12.833 -79 -16.5s-52.333 -6 -76 -7
s-44.667 -1 -63 0s-31.833 2.5 -40.5 4.5c-6.66699 2 -16.334 3.33301 -29.001 4s-26.334 2 -41.001 4s-29.5 5.33301 -44.5 10s-28.167 12 -39.5 22s-19.666 23.167 -24.999 39.5s-6 37.5 -2 63.5c1.33301 19.333 1.5 47.833 0.5 85.5s-2.83301 80.667 -5.5 129
s-6 100.166 -10 155.499s-8.33301 110.333 -13 165c-10.667 128.667 -23 268.334 -37 419.001c0 8.66699 -0.166992 17.834 -0.5 27.501s0.833984 18.834 3.50098 27.501s8.16699 16.667 16.5 24s21.166 12.833 38.499 16.5s40 5.33398 68 5.00098
s63.667 -3.83301 107 -10.5c42.667 -6.66699 79.5 -18.334 110.5 -35.001s56.167 -36.667 75.5 -60s32.666 -48.666 39.999 -75.999s9.16602 -54.666 5.49902 -81.999s-13 -53.833 -28 -79.5s-35.5 -48.167 -61.5 -67.5c-21.333 -19.333 -35.666 -40.5 -42.999 -63.5
s-9 -46.833 -5 -71.5s13 -49.5 27 -74.5s31.167 -49 51.5 -72s43.333 -44.667 69 -65s52.5 -37.833 80.5 -52.5zM282.004 605.996c6.66699 0 12.666 4.83301 17.999 14.5s8 17.5 8 23.5c0 13.333 -2.66699 23.333 -8 30s-11.333 10 -18 10c-26 0 -39 -13.333 -39 -40
c0 -6 3.33301 -13.833 10 -23.5s16.334 -14.5 29.001 -14.5zM334.003 -142.004c13.333 0 23 4.83203 29 14.499s9 17.834 9 24.501c0 26 -12.667 39 -38 39c-7.33301 0 -13.5 -3.16699 -18.5 -9.5s-7.5 -16.166 -7.5 -29.499c0 -6.66699 2.5 -14.834 7.5 -24.501
s11.167 -14.5 18.5 -14.5z" />
    <glyph glyph-name="C" unicode="C" 
d="M724 781c22 -12 41.0039 -26 57.0039 -42c13.333 -13.333 24.166 -29.666 32.499 -48.999s8.5 -40.666 0.5 -63.999c-10 -28 -22 -50 -36 -66s-28.833 -27.833 -44.5 -35.5s-31.5 -12.334 -47.5 -14.001s-31.5 -1.66699 -46.5 0s-28.667 3.66699 -41 6
s-22.166 3.5 -29.499 3.5l-21.5 10.5c-9 4.33301 -19.5 7.33301 -31.5 9s-25.5 1 -40.5 -2s-30.667 -10 -47 -21s-33.333 -27.333 -51 -49s-35.5 -50.5 -53.5 -86.5c-15.333 -38.667 -21.166 -72.334 -17.499 -101.001s13.167 -53.167 28.5 -73.5s34.333 -37 57 -50
s45.167 -23.333 67.5 -31s42.166 -13 59.499 -16s28.666 -4.5 33.999 -4.5s14.666 -1.5 27.999 -4.5s27.666 -8 42.999 -15s30.333 -16.333 45 -28s26.334 -26.667 35.001 -45s12.667 -40 12 -65s-8.66699 -54.167 -24 -87.5c-15.333 -36 -33.166 -63.333 -53.499 -82
s-42 -31.167 -65 -37.5s-46.5 -8.33301 -70.5 -6s-47.167 6.66602 -69.5 12.999s-43 13.166 -62 20.499s-34.833 12.333 -47.5 15c-9.33301 4 -23.5 13 -42.5 27s-39.833 32.333 -62.5 55s-46 49.334 -70 80.001s-45.833 64.834 -65.5 102.501s-35.834 78.167 -48.501 121.5
s-19.334 88.833 -20.001 136.5s6.16602 97.334 20.499 149.001s38.833 104.5 73.5 158.5c38 52 76.167 94.167 114.5 126.5s75.5 57.333 111.5 75s70.667 29.167 104 34.5s64.333 6.66602 93 3.99902c67.333 -6 131.333 -30 192 -72z" />
    <glyph glyph-name="D" unicode="D" 
d="M203 886c68.667 7.33301 132.168 5.16992 190.501 -6.49707s111 -29.834 158 -54.501s88.333 -54.667 124 -90s65.5 -73.333 89.5 -114s42.167 -82.667 54.5 -126s18.5 -85.333 18.5 -126c0 -57.333 -7.83301 -112.333 -23.5 -165s-38.5 -101.5 -68.5 -146.5
s-66.667 -85.167 -110 -120.5s-92.333 -63.666 -147 -84.999s-100 -36.666 -136 -45.999s-67 -13.5 -93 -12.5s-49 6.66699 -69 17s-41.333 24.166 -64 41.499c-23.333 18 -40.333 37.667 -51 59s-14.5 43.333 -11.5 66s13.667 45.5 32 68.5s45.5 45.167 81.5 66.5
c36 24.667 62.333 49.667 79 75s27.834 51.5 33.501 78.5s7.83398 55 6.50098 84s-2 59.5 -2 91.5c0 36 -5.5 64.5 -16.5 85.5s-23.5 36.667 -37.5 47s-27.333 17 -40 20s-20.334 4.5 -23.001 4.5c-6.66699 0 -18.5 0.666992 -35.5 2s-35.333 5.5 -55 12.5
s-38 18.333 -55 34s-28.833 37.834 -35.5 66.501c0 21.333 3 40.166 9 56.499s13.667 30.666 23 42.999s20.166 22.666 32.499 30.999s25.166 15.166 38.499 20.499c30 12.667 64.333 20 103 22zM541.001 197.004c16 -3.33301 30.333 -1.83496 43 4.49805s23 16.333 31 30
s13.667 29.834 17 48.501s3.66602 38.667 0.999023 60c-8 43.333 -16.333 82.333 -25 117s-23 62.667 -43 84c-12.667 10.667 -23.834 17.5 -33.501 20.5s-18.167 3.5 -25.5 1.5s-13.5 -5.16699 -18.5 -9.5s-9.16699 -8.5 -12.5 -12.5
c-5.33301 -38.667 -9.66602 -74 -12.999 -106c-2 -14 -3.66699 -28 -5 -42s-2.66602 -27.167 -3.99902 -39.5s-2.33301 -23.333 -3 -33s-1 -17.167 -1 -22.5c0 -7.33301 1.16699 -16.666 3.5 -27.999s6.83301 -22.5 13.5 -33.5s16 -20.333 28 -28s27.667 -11.5 47 -11.5z
" />
    <glyph glyph-name="E" unicode="E" 
d="M333 768l72 25.0068l59 22c20 7.33301 35.667 13.666 47 18.999c11.333 2.66699 27 5.5 47 8.5s40.167 2.66699 60.5 -1s38.333 -11.667 54 -24s25.167 -32.5 28.5 -60.5c0 -30.667 -5.16699 -55.667 -15.5 -75s-23.5 -34.833 -39.5 -46.5s-34 -20.834 -54 -27.501
s-39.667 -12.667 -59 -18c-22 -6 -39.833 -11.833 -53.5 -17.5s-24.667 -14 -33 -25s-15 -26.333 -20 -46s-10.167 -46.167 -15.5 -79.5s-4.83301 -59.666 1.5 -78.999s15.5 -33.833 27.5 -43.5s24.667 -15.834 38 -18.501s24.333 -4 33 -4s19.334 -1 32.001 -3
s24.834 -6.5 36.501 -13.5s21.667 -17 30 -30s12.5 -30.5 12.5 -52.5c0 -19.333 -6 -36.666 -18 -51.999s-26.833 -27.833 -44.5 -37.5s-36 -16.5 -55 -20.5s-35.5 -4.66699 -49.5 -2s-28.167 4.83398 -42.5 6.50098s-27.333 -0.666016 -39 -6.99902
s-21.334 -18 -29.001 -35s-11.5 -42.167 -11.5 -75.5c0 -20 5.33301 -35.167 16 -45.5s24.5 -16.833 41.5 -19.5s36 -2.33398 57 0.999023s41.667 8 62 14s39.5 12.5 57.5 19.5s32.667 13.5 44 19.5c14 11.333 29.5 17.166 46.5 17.499s32.667 -4.5 47 -14.5
s26.5 -24.5 36.5 -43.5s15 -42.5 15 -70.5c0 -30.667 -4 -55.5 -12 -74.5s-19.333 -33.333 -34 -43s-32.334 -15.5 -53.001 -17.5s-43.334 -1.66699 -68.001 1c-22.667 5.33301 -48.5 10.833 -77.5 16.5s-56.833 10.5 -83.5 14.5c-31.333 4.66699 -63 9 -95 13
c-39.333 11.333 -70 27.5 -92 48.5s-38.333 44.167 -49 69.5s-16.667 51.666 -18 78.999s-0.5 52.666 2.5 75.999s7 43.666 12 60.999s8.5 28.666 10.5 33.999c0 5.33301 1.66699 19 5 41l12.5 79.5l16 102c5.66699 37 11 73.667 16 110s9.16699 70.166 12.5 101.499
s5 57.333 5 78c0 34 3.33301 60.5 10 79.5s14.334 33.5 23.001 43.5c10 11.333 21.333 18.666 34 21.999z" />
    <glyph glyph-name="F" unicode="F" 
d="M392 803l34.0039 10.9961l51 17l63 21l69 23c20.667 5.33301 39.167 4.5 55.5 -2.5s30 -18.167 41 -33.5s19 -34.166 24 -56.499s6.16699 -46.5 3.5 -72.5c0 -17.333 -3.33301 -31.333 -10 -42s-15.5 -19.167 -26.5 -25.5s-23.333 -10.833 -37 -13.5
s-27.334 -4.66699 -41.001 -6s-26.834 -2.16602 -39.501 -2.49902s-23.334 -1.5 -32.001 -3.5c-10 -2.66699 -20.167 -4 -30.5 -4s-20.333 -2 -30 -6s-18.834 -11.167 -27.501 -21.5s-17 -27.166 -25 -50.499c-5.33301 -23.333 -4.16602 -41.833 3.50098 -55.5
s18.5 -24 32.5 -31s30 -11.5 48 -13.5s34.667 -3 50 -3c12.667 2.66699 23 1.16699 31 -4.5s14.333 -13.334 19 -23.001s7.83398 -20.5 9.50098 -32.5s2.5 -23 2.5 -33c0 -26 -12 -46.333 -36 -61s-57 -22 -99 -22c-20.667 0 -37.167 -2.33301 -49.5 -7
s-22.333 -10.5 -30 -17.5s-13.834 -14.667 -18.501 -23s-9.66699 -16.5 -15 -24.5c-2 -6.66699 -4.33301 -18.167 -7 -34.5s-5.5 -35.333 -8.5 -57l-10 -70.5l-10.5 -76c-3.33301 -25.333 -6.33301 -49.5 -9 -72.5l-7 -60.5c0 -23.333 -4.16699 -43.166 -12.5 -59.499
s-19.5 -28.666 -33.5 -36.999s-30.333 -12.333 -49 -12s-38.334 5.5 -59.001 15.5c-20.667 8 -37 19.667 -49 35s-20.667 32 -26 50s-7.5 36 -6.5 54s4.16699 33.667 9.5 47c3.33301 10 7.5 27.833 12.5 53.5s10.5 56.5 16.5 92.5l19.5 118.5l21.5 133l22 136l21 126.5
c4.66699 29.333 11 55.333 19 78s16.5 42.167 25.5 58.5s18.5 30.333 28.5 42s20 21.167 30 28.5c22.667 17.333 46.667 27.333 72 30z" />
    <glyph glyph-name="G" unicode="G" 
d="M383 741c59.333 32 112.339 51.665 159.006 58.998c20 2.66699 39.5 3 58.5 1s36 -8.16699 51 -18.5s27.167 -26 36.5 -47s14 -48.5 14 -82.5c0 -34.667 -5.33301 -63.5 -16 -86.5s-24.334 -41.333 -41.001 -55s-35.667 -23.834 -57 -30.501s-42.5 -11 -63.5 -13
s-41.167 -2.83301 -60.5 -2.5s-35.333 0.5 -48 0.5c-22 0 -42.333 -5 -61 -15s-34.5 -26 -47.5 -48s-22.667 -50.5 -29 -85.5s-8.16602 -77.167 -5.49902 -126.5c0 -34.667 3.5 -63.5 10.5 -86.5s16 -41.333 27 -55s22.833 -23.834 35.5 -30.501s24.667 -11 36 -13
s21.166 -2.83301 29.499 -2.5s13.5 0.5 15.5 0.5c2.66699 0 7.5 0.666992 14.5 2s14 3.83301 21 7.5s12.667 8.33398 17 14.001s5.16602 12.5 2.49902 20.5s-4 20.667 -4 38s3.66699 34.5 11 51.5s19.833 32 37.5 45s43.167 19.5 76.5 19.5c32.667 0 58.667 -4.66699 78 -14
s33.666 -20.166 42.999 -32.499s15.333 -24.666 18 -36.999s4 -21.166 4 -26.499s1.16699 -17.333 3.5 -36s5.33301 -40 9 -64l11 -74.5l9.5 -67.5c2.66699 -19.333 3.16699 -38.166 1.5 -56.499s-6.33398 -34.833 -14.001 -49.5s-18.5 -26.334 -32.5 -35.001
s-32 -13 -54 -13c-22 2.66699 -40.167 6.66699 -54.5 12s-26 11.5 -35 18.5s-15.833 14.5 -20.5 22.5s-8.33398 16 -11.001 24c0 11.333 -4.5 18.166 -13.5 20.499s-19.167 2.83301 -30.5 1.5c-12.667 -2 -27.334 -5.66699 -44.001 -11
c-25.333 -9.33301 -53.666 -13 -84.999 -11s-62.833 9.5 -94.5 22.5s-62.5 31.667 -92.5 56s-56.667 54.333 -80 90s-42 77 -56 124s-21 99.833 -21 158.5c0 44 4.83301 85 14.5 123s22.5 73.333 38.5 106s34.167 62.334 54.5 89.001s41.166 50.667 62.499 72
c50 50 107 92.333 171 127z" />
    <glyph glyph-name="H" unicode="H" 
d="M27 618c1.33301 20 7.66797 38.666 19.001 55.999c9.33301 14.667 24.166 28.667 44.499 42s49.5 21.666 87.5 24.999c22.667 2 41 -0.666992 55 -8s25 -17.666 33 -30.999s13.667 -28.333 17 -45s5.16602 -33.5 5.49902 -50.5s0 -33 -1 -48s-1.5 -27.167 -1.5 -36.5
c-3.33301 -14 -6.16602 -28.833 -8.49902 -44.5s-1.33301 -30.334 3 -44.001s13.166 -25 26.499 -34s33.666 -13.5 60.999 -13.5s46.166 9.5 56.499 28.5s16 41.833 17 68.5s-1 53.667 -6 81l-12.5 67c0 11.333 -0.166992 25 -0.5 41s0.333984 32.833 2.00098 50.5
s4.66699 35.5 9 53.5s11 34.667 20 50s21 28.833 36 40.5s33.833 19.834 56.5 24.501c20 6.66699 38 6.83398 54 0.500977s30.167 -16.5 42.5 -30.5s23 -30.333 32 -49s16.667 -37.167 23 -55.5s11.5 -35.166 15.5 -50.499s7 -26.333 9 -33c0 -14 1.66699 -37 5 -69
s8 -68.5 14 -109.5s13.167 -84.167 21.5 -129.5s17.5 -88.333 27.5 -129l29.5 -121.5c9.66699 -39.667 14.5 -76.5 14.5 -110.5s-7 -64.167 -21 -90.5s-40 -46.166 -78 -59.499c-24.667 -6.66699 -46.5 -7.83398 -65.5 -3.50098s-35.833 12.166 -50.5 23.499
s-27.167 25.333 -37.5 42s-19.5 33.667 -27.5 51s-14.667 34.166 -20 50.499s-10.333 30.166 -15 41.499c-4 16.667 -10 33.167 -18 49.5s-17.667 30.5 -29 42.5s-23.5 21 -36.5 27s-26.5 7.33301 -40.5 4c-14 0 -26.667 -5 -38 -15s-20.333 -24.333 -27 -43
s-10.5 -41.667 -11.5 -69s1.83301 -58 8.5 -92c6.66699 -37.333 9.83398 -73.333 9.50098 -108s-5.66602 -65.667 -15.999 -93s-26 -49.833 -47 -67.5s-48.5 -28.167 -82.5 -31.5c-25.333 0 -46.833 4.83301 -64.5 14.5s-32.667 22.334 -45 38.001s-22 33.334 -29 53.001
s-12.5 39.667 -16.5 60s-6.5 39.833 -7.5 58.5s-1.5 35 -1.5 49c1.33301 10 2.5 27.5 3.5 52.5s1.66699 54.5 2 88.5s0.5 71 0.5 111s-0.333008 80 -1 120c-1.33301 94 -3 197.333 -5 310z" />
    <glyph glyph-name="I" unicode="I" 
d="M177 591c47.333 -2 93.335 -2.99707 138.002 -2.99707c18.667 0 38.167 0.166992 58.5 0.5s40.166 1 59.499 2s38 2.33301 56 4s34 3.83398 48 6.50098c26 5.33301 48 4.33301 66 -3s32.833 -17 44.5 -29s20.167 -24.833 25.5 -38.5s8 -24.5 8 -32.5
c0 -5.33301 0.5 -15.333 1.5 -30s-0.333008 -30 -4 -46s-11.334 -30.667 -23.001 -44s-30.5 -21.333 -56.5 -24c-23.333 -2.66699 -41.166 -7.33398 -53.499 -14.001s-21.5 -13.667 -27.5 -21c-7.33301 -8 -11.333 -17 -12 -27c0 -16 -0.333008 -32.667 -1 -50
c-0.666992 -15.333 -1.66699 -32 -3 -50s-3.33301 -36 -6 -54c-2.66699 -15.333 -0.166992 -29.166 7.5 -41.499s18 -22 31 -29s27.167 -11 42.5 -12s29.333 2.5 42 10.5c10 4.66699 24.167 6.33398 42.5 5.00098s36.333 -6.16602 54 -14.499s32.5 -20.333 44.5 -36
s16.667 -34.834 14 -57.501c-5.33301 -23.333 -15.166 -42.333 -29.499 -57s-30.833 -25.834 -49.5 -33.501s-38.334 -12.334 -59.001 -14.001s-40 -1.16699 -58 1.5c-12 0 -28.833 -0.5 -50.5 -1.5s-45.334 -2.33301 -71.001 -4l-79.5 -5
c-27.333 -1.66699 -52.666 -3.33398 -75.999 -5.00098s-43.5 -3 -60.5 -4s-28.167 -1.5 -33.5 -1.5c-3.33301 0 -9.5 -0.166992 -18.5 -0.5s-19.167 0.166992 -30.5 1.5s-23.166 3.66602 -35.499 6.99902s-23.666 8.33301 -33.999 15s-18.833 15.667 -25.5 27
s-10 25.666 -10 42.999c0 26 5.33301 46.833 16 62.5s25 27.334 43 35.001s38.833 11.667 62.5 12s48.5 -1.83398 74.5 -6.50098c28 -5.33301 49.167 -2.83301 63.5 7.5s24.5 22.5 30.5 36.5c7.33301 16.667 10.333 36.334 9 59.001l5 40c1.33301 13.333 2.5 30.333 3.5 51
s1.5 45.334 1.5 74.001c-2.66699 28 -12.834 48.167 -30.501 60.5s-37.5 20.333 -59.5 24s-43.167 5.16699 -63.5 4.5s-34.5 0.333008 -42.5 3h-25c-11.333 0 -22.666 2.16699 -33.999 6.5s-21.5 12.333 -30.5 24s-13.5 29.167 -13.5 52.5
c-2.66699 25.333 1.66602 45.666 12.999 60.999s24.666 26.666 39.999 33.999c17.333 8.66699 37.666 14.667 60.999 18z" />
    <glyph glyph-name="J" unicode="J" 
d="M253 740c10 2.66699 22.333 4.66797 37 6.00098s29 2.33301 43 3c16.667 0.666992 33.667 1 51 1h284c18 0 36 -2.16699 54 -6.5s34.167 -11.5 48.5 -21.5s26.166 -23.5 35.499 -40.5s14 -38.167 14 -63.5c0 -50 -10.5 -84.333 -31.5 -103s-54.167 -28 -99.5 -28
c-23.333 -2.66699 -41.333 -6.5 -54 -11.5s-22.167 -11.667 -28.5 -20s-10.666 -18.333 -12.999 -30s-4.5 -25.167 -6.5 -40.5c-5.33301 -12.667 -7.5 -29.334 -6.5 -50.001s1.66699 -46.5 2 -77.5s-0.833984 -67.667 -3.50098 -110s-10.334 -91.5 -23.001 -147.5
c-6.66699 -38.667 -19.5 -70.834 -38.5 -96.501s-41.667 -46 -68 -61s-55 -25.167 -86 -30.5s-61.833 -6.83301 -92.5 -4.5s-60.167 8 -88.5 17s-52.5 20.5 -72.5 34.5c-30 22.667 -53.167 45.334 -69.5 68.001s-28 44.667 -35 66s-10.5 42 -10.5 62s1.33301 39 4 57
c0 35.333 9.66699 62 29 80s46.666 32.333 81.999 43c15.333 2 26.5 -3.33301 33.5 -16s11.833 -27 14.5 -43c2.66699 -18.667 3.66699 -40 3 -64c4.66699 -23.333 12.334 -43.666 23.001 -60.999c9.33301 -15.333 21.833 -29.333 37.5 -42s36.167 -19 61.5 -19
c26.667 0 48.834 7.16699 66.501 21.5s31.834 33.333 42.501 57s18.5 50.667 23.5 81s8.66699 61.333 11 93s3.83301 62.667 4.5 93s2 57.5 4 81.5c0 32.667 -6.66699 57.167 -20 73.5s-29.5 28 -48.5 35s-39 10.667 -60 11s-38.833 0.5 -53.5 0.5c-18 0 -34.5 1 -49.5 3
s-28 6.16699 -39 12.5s-19.5 15.5 -25.5 27.5s-9 28 -9 48c0 23.333 6.33301 42 19 56s26.667 25.333 42 34c18 9.33301 38.667 16.666 62 21.999z" />
    <glyph glyph-name="K" unicode="K" 
d="M210 651c8 33.333 16.1729 59.4971 24.5059 78.4971s18.666 33 30.999 42s27.166 14.167 44.499 15.5s38.666 0.666016 63.999 -2.00098c12 -1.33301 21.833 -4.33301 29.5 -9s14 -10.334 19 -17.001s8.5 -13.834 10.5 -21.501s3.33301 -15.5 4 -23.5
c1.33301 -18.667 -1.66699 -39.667 -9 -63c-2.66699 -10.667 -5.33398 -24 -8.00098 -40l-10 -51.5l-14 -73.5c-5.33301 -31.333 -3.66602 -52.833 5.00098 -64.5s20.667 -14.667 36 -9s32.5 20 51.5 43s36.167 53.833 51.5 92.5c12 25.333 26 45.333 42 60
s32.5 25.334 49.5 32.001s33.667 10.334 50 11.001s31 -0.333008 44 -3s23.5 -6 31.5 -10s12 -7 12 -9c2.66699 -2 7.16699 -4.66699 13.5 -8s12.333 -8.5 18 -15.5s9.83398 -16.667 12.501 -29s1.66699 -28.833 -3 -49.5c-5.33301 -20.667 -14.833 -39.167 -28.5 -55.5
s-29.5 -32.166 -47.5 -47.499l-58.5 -47.5c-21 -16.333 -41.833 -34.833 -62.5 -55.5c-12 -14 -18.333 -29.333 -19 -46s2.16602 -33.5 8.49902 -50.5s14.833 -33.667 25.5 -50s21.5 -31 32.5 -44s20.833 -23.833 29.5 -32.5l16 -16c1.33301 -3.33301 5 -8.83301 11 -16.5
s11.833 -16.667 17.5 -27s10.667 -21.666 15 -33.999s5.33301 -25.166 3 -38.499s-8.5 -26.833 -18.5 -40.5s-26.333 -26.5 -49 -38.5c-24 -10.667 -45.167 -15.167 -63.5 -13.5s-34.166 7.33398 -47.499 17.001s-24.5 21.834 -33.5 36.501s-16.833 29.834 -23.5 45.501
s-12.167 30.667 -16.5 45s-8.16602 25.833 -11.499 34.5c-10 30.667 -22.167 50.5 -36.5 59.5s-29.5 13.5 -45.5 13.5c-16.667 0 -29.5 -18.5 -38.5 -55.5s-13.5 -94.833 -13.5 -173.5c2.66699 -36 -1 -66.833 -11 -92.5s-25.333 -45.167 -46 -58.5
s-46.334 -20.5 -77.001 -21.5s-65.334 5.16699 -104.001 18.5c-24 8.66699 -42.833 21.167 -56.5 37.5s-23.334 34.666 -29.001 54.999s-8.33398 41.666 -8.00098 63.999s2.16602 44 5.49902 65s7.5 40.167 12.5 57.5s9.16699 31 12.5 41c4 8 9.33301 22.5 16 43.5
s14 46 22 75l25.5 95.5l26.5 104z" />
    <glyph glyph-name="L" unicode="L" 
d="M198 645c4.66699 32 14.168 56.332 28.501 72.999s30 27.334 47 32.001s33.833 4.33398 50.5 -0.999023s29.667 -14 39 -26c10 -14.667 17 -32.834 21 -54.501s6 -44 6 -67s-1.66699 -45.333 -5 -67s-7.33301 -39.834 -12 -54.501l-8 -54
c-2.66699 -18.667 -6.5 -41.167 -11.5 -67.5s-11.333 -57.833 -19 -94.5l-29.5 -136c-10 -36 -11.667 -62.667 -5 -80s18 -28.333 34 -33s35.5 -4.83398 58.5 -0.500977s45.833 10.166 68.5 17.499s43.834 14.833 63.501 22.5s34.5 12.5 44.5 14.5c12 2 23.167 4 33.5 6
s20.666 2.83301 30.999 2.5s21.166 -2.66602 32.499 -6.99902s24 -11.5 38 -21.5c12.667 -9.33301 17.667 -21.833 15 -37.5s-8.16699 -31 -16.5 -46s-17.5 -28.5 -27.5 -40.5s-16 -19 -18 -21c-5.33301 -5.33301 -17 -14.5 -35 -27.5s-41.667 -27.5 -71 -43.5
s-63.833 -31.833 -103.5 -47.5s-83.834 -28.5 -132.501 -38.5c-44 0 -80.333 4.16699 -109 12.5s-51.667 19.166 -69 32.499s-30 28.333 -38 45s-13.333 33.334 -16 50.001s-3.66699 32.334 -3 47.001s1 27 1 37c-1.33301 6 -0.666016 20.333 2.00098 43
s6.66699 50.334 12 83.001l18.5 108.5c7 39.667 14.5 79.834 22.5 120.501c17.333 95.333 38 201.666 62 318.999z" />
    <glyph glyph-name="M" unicode="M" 
d="M77 599c13.333 38 27.832 67.501 43.499 88.501s31 36.333 46 46s29 14.334 42 14.001s23.5 -3.16602 31.5 -8.49902c8 -2.66699 15.833 -8.5 23.5 -17.5s15.167 -20.167 22.5 -33.5s14.333 -28.666 21 -45.999s13 -35.333 19 -54c8 -18.667 16.5 -33.667 25.5 -45
s17.833 -20 26.5 -26s16.834 -10 24.501 -12s14.167 -3 19.5 -3c2.66699 0 6.66699 1 12 3s11.833 6 19.5 12s16 14.667 25 26s18.833 26.333 29.5 45c16 32.667 32.5 56.5 49.5 71.5s36.167 19.833 57.5 14.5c26.667 0 50.167 -8.83301 70.5 -26.5
s33.166 -47.834 38.499 -90.501c3.33301 -14.667 8.66602 -33.334 15.999 -56.001l25 -74l29.5 -83l30.5 -81l28 -69c8.66699 -20.667 15.667 -36.334 21 -47.001l13.5 -36c5.66699 -15.333 10.667 -32 15 -50s7.33301 -36.667 9 -56s-0.166016 -37.5 -5.49902 -54.5
s-14.666 -32 -27.999 -45s-32.666 -22.167 -57.999 -27.5c-40 -2.66699 -70.667 0.666016 -92 9.99902s-37.333 23.666 -48 42.999s-18.334 43.666 -23.001 72.999s-11 63 -19 101c-11.333 75.333 -24.666 134 -39.999 176s-30.666 65.667 -45.999 71
c-16.667 0 -30.334 -7.16699 -41.001 -21.5s-18.667 -32.5 -24 -54.5c0 -27.333 -7.66699 -48.5 -23 -63.5s-36.333 -22.5 -63 -22.5c-16.667 2.66699 -29.334 8 -38.001 16s-15 16.667 -19 26c-4.66699 10.667 -7.33398 22 -8.00098 34c-0.666992 16 -3 30.333 -7 43
c-3.33301 10.667 -8.66602 20.5 -15.999 29.5s-17.666 13.5 -30.999 13.5c-14.667 1.33301 -27.834 -3.83398 -39.501 -15.501s-22.667 -27.667 -33 -48s-19.666 -43.666 -27.999 -69.999s-16 -52.833 -23 -79.5l-20 -78c-6.33301 -25.333 -12.166 -47 -17.499 -65
c-5.33301 -24 -13 -45.667 -23 -65s-21.5 -35 -34.5 -47s-26.667 -19.667 -41 -23s-28.166 -1 -41.499 7c-16 10.667 -28.333 23.167 -37 37.5s-14.334 29.833 -17.001 46.5s-2.83398 34.334 -0.500977 53.001s6.16602 37.334 11.499 56.001c4 10.667 9 26.5 15 47.5
l20 72.5l22.5 87.5l23.5 93.5z" />
    <glyph glyph-name="N" unicode="N" 
d="M13 463c0 24.667 2.33496 49.835 7.00195 75.502s11.667 48.5 21 68.5s21 35.667 35 47s30.333 15.333 49 12c14.667 -1.33301 30.834 -9.16602 48.501 -23.499s35.5 -32 53.5 -53s35.833 -44.167 53.5 -69.5s34 -49.833 49 -73.5s28 -45.334 39 -65.001
s18.833 -34.167 23.5 -43.5l24 -41.5c9.33301 -15.667 20.333 -30 33 -43s26.667 -22.833 42 -29.5s32.666 -7 51.999 -1c16.667 5.33301 26.167 18.5 28.5 39.5s1.33301 45.833 -3 74.5s-9.66602 59 -15.999 91s-9.5 62 -9.5 90c-2 32 -1.5 63.667 1.5 95
s10.5 59.5 22.5 84.5s29 45.333 51 61s51 23.5 87 23.5c22 2 39.833 -2.16699 53.5 -12.5s23.834 -24.333 30.501 -42s10.667 -37.667 12 -60s1 -44.833 -1 -67.5s-4.83301 -44.167 -8.5 -64.5s-7.16699 -36.833 -10.5 -49.5c-3.33301 -13.333 -6.33301 -32 -9 -56
s-5.16699 -50.667 -7.5 -80s-4.16602 -59.666 -5.49902 -90.999s-2.5 -61 -3.5 -89s-1.66699 -52.833 -2 -74.5s-0.5 -37.167 -0.5 -46.5c0 -14 0.833008 -31.333 2.5 -52s0.166992 -41 -4.5 -61s-14.5 -37.5 -29.5 -52.5s-38.833 -23.833 -71.5 -26.5
c-20.667 -2 -39.834 0.666992 -57.501 8s-34 17.5 -49 30.5s-28.833 27.833 -41.5 44.5s-24.5 33.667 -35.5 51l-30.5 50c-9.33301 16 -18 29.667 -26 41c-9.33301 14.667 -20.5 29.667 -33.5 45s-26.667 29.333 -41 42s-29 23 -44 31s-29.5 12 -43.5 12
c-6 -2 -10.833 -9.83301 -14.5 -23.5s-6.5 -30.5 -8.5 -50.5s-3.33301 -41.667 -4 -65s-1.16699 -46 -1.5 -68s-0.333008 -42 0 -60s0.5 -31.333 0.5 -40c1.33301 -12 2.66602 -26 3.99902 -42s1.83301 -32.333 1.5 -49s-2.16602 -33 -5.49902 -49
s-8.83301 -29.667 -16.5 -41s-17.834 -19.833 -30.501 -25.5s-28.667 -6.5 -48 -2.5c-20.667 4 -37.834 13 -51.501 27s-24.5 30.5 -32.5 49.5s-13.833 40 -17.5 63s-5.83398 45.667 -6.50098 68s-0.333984 43.166 0.999023 62.499s2.66602 35.666 3.99902 48.999
c0 8 -0.166992 20.667 -0.5 38s-0.833008 37.333 -1.5 60s-1.16699 47 -1.5 73s-0.833008 52 -1.5 78c-1.33301 61.333 -2.66602 127.666 -3.99902 198.999z" />
    <glyph glyph-name="O" unicode="O" 
d="M727 284c8 -49.333 7.83008 -98.4971 -0.50293 -147.497s-22 -94.667 -41 -137s-42 -79.666 -69 -111.999s-55.5 -56.5 -85.5 -72.5c-18 -10.667 -37.667 -21.334 -59 -32.001s-43.5 -19 -66.5 -25s-47.167 -8.83301 -72.5 -8.5s-51.166 6 -77.499 17s-53 28.333 -80 52
s-53.833 55.5 -80.5 95.5c-20.667 31.333 -36.167 63.833 -46.5 97.5s-17 67.5 -20 101.5s-2.83301 67.5 0.5 100.5s8.33301 64.167 15 93.5c15.333 69.333 39.333 137.666 72 204.999c2.66699 8 10.334 22.167 23.001 42.5s31.334 40.333 56.001 60s55.667 36.167 93 49.5
s82 17.333 134 12c54 -6 98.667 -20.5 134 -43.5s64.333 -52.333 87 -88s40.167 -75.834 52.5 -120.501s22.833 -91.334 31.5 -140.001zM465.997 -21.9971c29.333 40.667 49.4971 80.9961 60.4971 120.996s16.167 77.333 15.5 112s-5.5 65.834 -14.5 93.501
s-18.833 49.5 -29.5 65.5c-11.333 16.667 -24.5 28.834 -39.5 36.501s-29.167 13.167 -42.5 16.5c-16 3.33301 -32.333 4.33301 -49 3c-24.667 -6 -45 -19.833 -61 -41.5s-29 -46.167 -39 -73.5s-18.167 -54.666 -24.5 -81.999s-12.166 -49 -17.499 -65
c-11.333 -39.333 -14.166 -76.666 -8.49902 -111.999s19.167 -63.666 40.5 -84.999c10.667 -13.333 23.5 -24.333 38.5 -33s31.333 -13.334 49 -14.001s36.834 3.33301 57.501 12s42 24 64 46z" />
    <glyph glyph-name="P" unicode="P" 
d="M737 515c1.33301 -41.333 -2.16602 -75.999 -10.499 -103.999s-20 -50.833 -35 -68.5s-32.333 -31 -52 -40s-39.5 -15.5 -59.5 -19.5s-39.5 -6.16699 -58.5 -6.5s-35.5 -0.5 -49.5 -0.5c-18.667 0 -32.334 -3.33301 -41.001 -10s-14.667 -14 -18 -22
c-4 -9.33301 -5.66699 -20 -5 -32c4.66699 -80.667 2.66699 -148 -6 -202s-21.334 -97.833 -38.001 -131.5s-35.667 -58.667 -57 -75s-42.166 -27.333 -62.499 -33s-39 -7.5 -56 -5.5s-29.167 4.33301 -36.5 7c-9.33301 6.66699 -18.833 15 -28.5 25
s-16.334 22.167 -20.001 36.5s-2.33398 31.5 3.99902 51.5s21.166 43.667 44.499 71c22.667 27.333 38.334 60.166 47.001 98.499s13.834 81 15.501 128s1.83398 97.667 0.500977 152s-1 111.5 1 171.5c0.666992 29.333 4.16699 55.333 10.5 78s14 42.167 23 58.5
s19.167 30.333 30.5 42s23 21.167 35 28.5c27.333 17.333 58.333 27.333 93 30c3.33301 0 13.5 0.333008 30.5 1s37.5 -0.333008 61.5 -3s49.5 -8 76.5 -16s52.167 -20.333 75.5 -37s43 -39 59 -67s24.667 -63.333 26 -106zM527.001 442.001
c4.66699 0 8.83301 2.16699 12.5 6.5s5.5 10.833 5.5 19.5c0 5.33301 -1.83301 9.83301 -5.5 13.5s-7.83398 5.5 -12.501 5.5c-9.33301 0 -16.166 -1.83301 -20.499 -5.5s-6.5 -8.16699 -6.5 -13.5c0 -17.333 9 -26 27 -26z" />
    <glyph glyph-name="Q" unicode="Q" 
d="M798 143c21.333 -3.33301 34.502 -12.335 39.502 -27.002s5.5 -31.5 1.5 -50.5s-10.333 -38.333 -19 -58l-22 -48.5c-6 -16 -17.167 -29.167 -33.5 -39.5s-34.166 -17.333 -53.499 -21s-38 -3.66699 -56 0s-31.667 11.834 -41 24.501c-12 8.66699 -23.667 15.5 -35 20.5
s-23.166 8.66699 -35.499 11s-25.666 3.66602 -39.999 3.99902s-30.833 0.5 -49.5 0.5c-8 -1.33301 -20.333 -2.33301 -37 -3s-36 0.5 -58 3.5s-46 8.33301 -72 16s-51.833 19 -77.5 34s-50.334 34.167 -74.001 57.5s-44.667 52.333 -63 87s-33 75.334 -44 122.001
s-16.5 100.667 -16.5 162c1.33301 60 7.5 112.333 18.5 157s25 83.167 42 115.5s36.167 59.333 57.5 81s43 39.167 65 52.5c51.333 31.333 109.333 46.666 174 45.999c49.333 -2.66699 92.666 -13.167 129.999 -31.5s70.333 -41.666 99 -69.999s53.167 -60.166 73.5 -95.499
s38.166 -71.333 53.499 -108c12.667 -40 20.167 -78.833 22.5 -116.5s1.5 -72.5 -2.5 -104.5s-10.333 -60.667 -19 -86s-17.334 -45.666 -26.001 -60.999c-9.33301 -18.667 -13.333 -33 -12 -43s6.5 -17.333 15.5 -22s21.667 -7.33398 38 -8.00098s35.166 -1 56.499 -1z
M432.002 536.998c-23.333 4 -46.499 2 -69.499 -6s-42 -20.333 -57 -37s-23.667 -37 -26 -61s5.5 -49.667 23.5 -77c20.667 -12.667 40.334 -21.667 59.001 -27c8 -2 16.167 -3.5 24.5 -4.5s16.166 -0.666992 23.499 1s14.333 4.83398 21 9.50098s12.334 11.667 17.001 21
c8.66699 13.333 17 29.5 25 48.5s12.667 37.667 14 56s-1.83398 34.666 -9.50098 48.999s-22.834 23.5 -45.501 27.5zM439.003 174.998c11.333 0 19.499 2.83496 24.499 8.50195s8 12.167 9 19.5s1 14.5 0 21.5s-1.5 12.167 -1.5 15.5c-4 0 -8 1.16699 -12 3.5
s-8.5 4.33301 -13.5 6s-10.333 2 -16 1s-11.834 -4.5 -18.501 -10.5c-11.333 -6.66699 -21.5 -9.66699 -30.5 -9s-16.833 2.66699 -23.5 6c-7.33301 3.33301 -14 8.66602 -20 15.999c-7.33301 3.33301 -14.666 4.5 -21.999 3.5s-13.666 -2.83301 -18.999 -5.5
c-6.66699 -2.66699 -12.667 -6.33398 -18 -11.001c-4.66699 -4.66699 -7.66699 -10 -9 -16c-1.33301 -5.33301 -0.666016 -11.166 2.00098 -17.499s9.66699 -12.833 21 -19.5c7.33301 -9.33301 19.166 -15.333 35.499 -18s32.833 -3.33398 49.5 -2.00098
c19.333 1.33301 40 4 62 8z" />
    <glyph glyph-name="R" unicode="R" 
d="M663 -19c8 -8 16.8301 -18.332 26.4971 -30.999s18.334 -26.667 26.001 -42s13.5 -31.333 17.5 -48s4.16699 -32.834 0.5 -48.501s-11.834 -30.5 -24.501 -44.5s-32 -26 -58 -36c-37.333 -11.333 -68.5 -14.166 -93.5 -8.49902s-45.667 16.667 -62 33s-29 36.5 -38 60.5
s-16 48.667 -21 74s-9 49.333 -12 72s-6.5 41 -10.5 55c-6 18 -11.833 32.333 -17.5 43s-11 18.834 -16 24.501s-9.66699 9.5 -14 11.5s-8.16602 3 -11.499 3c-6 0 -10 -2.66699 -12 -8s-3 -11.666 -3 -18.999s0.5 -15 1.5 -23s1.5 -14.667 1.5 -20c0 -18 3 -46 9 -84
s15.333 -81 28 -129c5.33301 -21.333 8.16602 -43.833 8.49902 -67.5s-4 -45.167 -13 -64.5s-23.5 -34.833 -43.5 -46.5s-48 -15.834 -84 -12.501c-35.333 6 -61.166 16.5 -77.499 31.5s-26.333 31.833 -30 50.5s-2.66699 37.667 3 57s13.167 36.666 22.5 51.999
c8 9.33301 12.833 28 14.5 56s1.33398 61.667 -0.999023 101s-6 82.5 -11 129.5s-10.667 94.833 -17 143.5l-18.5 142.5c-6 46.333 -11 88.166 -15 125.499c-4.66699 30 -6.66699 56.667 -6 80s3.16699 44.333 7.5 63s9.83301 34.667 16.5 48s14 25 22 35
c18 22.667 40.333 38.667 67 48c19.333 8.66699 40.666 16 63.999 22c20 5.33301 43.667 9.5 71 12.5s57.333 2.83301 90 -0.5c36 -5.33301 69.333 -15.333 100 -30s57.667 -33.5 81 -56.5s42.833 -50 58.5 -81s26.5 -65.833 32.5 -104.5s3.83301 -73.334 -6.5 -104.001
s-23.666 -57.167 -39.999 -79.5s-32.833 -40.166 -49.5 -53.499s-27.667 -21.333 -33 -24c-6 -2.66699 -12.667 -6.5 -20 -11.5s-14.666 -12 -21.999 -21s-14.666 -20.333 -21.999 -34s-14 -30.5 -20 -50.5c-2.66699 -18 2.16602 -36.5 14.499 -55.5s27.5 -37 45.5 -54
s36 -32.667 54 -47s31.333 -25.833 40 -34.5zM459.997 327.001c6.66699 0 13.333 3 20 9s12.667 13.167 18 21.5s9.5 16.833 12.5 25.5s4.5 16 4.5 22c0 30 -5.66699 51.5 -17 64.5s-24 19.5 -38 19.5c-25.333 0 -45.333 -6.5 -60 -19.5s-22 -34.5 -22 -64.5
c0 -6 2 -13.333 6 -22s9.5 -17.167 16.5 -25.5s15.5 -15.5 25.5 -21.5s21.333 -9 34 -9z" />
    <glyph glyph-name="S" unicode="S" 
d="M604 690c24.667 -2 47.002 -8.99805 67.002 -20.998c17.333 -10.667 33.333 -26.834 48 -48.501s23.334 -53.167 26.001 -94.5c0 -34 -5.33301 -59.667 -16 -77s-24.167 -29 -40.5 -35s-34.166 -7.5 -53.499 -4.5s-38 7.66699 -56 14s-34 13.166 -48 20.499
s-23.667 12.666 -29 15.999c-5.33301 0 -13 1 -23 3s-20.5 3.16699 -31.5 3.5s-21.167 -1 -30.5 -4s-15.333 -9.83301 -18 -20.5c-2 -9.33301 -0.833008 -18.333 3.5 -27s10.333 -16.667 18 -24s16.167 -14.5 25.5 -21.5s17.666 -13.833 24.999 -20.5
c6.66699 -2 18.834 -7.16699 36.501 -15.5s37.334 -19.666 59.001 -33.999s43.5 -31.333 65.5 -51s41.333 -42.334 58 -68.001s28.667 -54 36 -85s6.66602 -64.5 -2.00098 -100.5c-8.66699 -36.667 -22.834 -68.167 -42.501 -94.5s-42.167 -48.5 -67.5 -66.5
s-52.5 -32 -81.5 -42s-57.167 -17 -84.5 -21s-52.5 -5.5 -75.5 -4.5s-41.167 3.83301 -54.5 8.5c-20 3.33301 -42.667 9.66602 -68 18.999s-49 23 -71 41s-40.167 40.833 -54.5 68.5s-20.5 61.5 -18.5 101.5c5.33301 41.333 18 70 38 86s44.167 23.167 72.5 21.5
s59.333 -10.167 93 -25.5s67.167 -33.333 100.5 -54c30.667 -20 56 -29.833 76 -29.5s35.667 4.83301 47 13.5c13.333 10 23.333 25 30 45c9.33301 24 10.333 48 3 72c-3.33301 10 -8.33301 20.667 -15 32s-16 22.833 -28 34.5s-27.167 23.167 -45.5 34.5
s-40.833 22 -67.5 32c-70.667 20.667 -127.334 42.834 -170.001 66.501s-72.834 48.834 -90.501 75.501s-23.667 54.334 -18 83.001s21.167 58 46.5 88c12.667 14 28.334 26.167 47.001 36.5s39.167 19.333 61.5 27s45.666 14.167 69.999 19.5s48.166 9.66602 71.499 12.999
c55.333 8 114 12.667 176 14z" />
    <glyph glyph-name="T" unicode="T" 
d="M218 636c8 0 23.167 0.498047 45.5 1.49805s46.666 1.83301 72.999 2.5s52 0.833984 77 0.500977s44.5 -1.83301 58.5 -4.5c9.33301 0 21.166 0.5 35.499 1.5s30 1.5 47 1.5s34.333 -1.5 52 -4.5s34.334 -8.66699 50.001 -17s29.5 -19.833 41.5 -34.5
s20.667 -33.667 26 -57c8.66699 -36 10 -63.167 4 -81.5s-16.833 -31 -32.5 -38s-35.5 -9.83301 -59.5 -8.5s-49.667 3.66602 -77 6.99902c-16 2 -29.667 -2.83301 -41 -14.5s-20.666 -27.167 -27.999 -46.5s-13 -41 -17 -65s-6.83301 -47.833 -8.5 -71.5
s-2.66699 -45.5 -3 -65.5s-0.5 -35.333 -0.5 -46s0.833008 -26.667 2.5 -48s2.33398 -44.333 2.00098 -69s-2.5 -49.5 -6.5 -74.5s-11.333 -47.167 -22 -66.5s-25.5 -34 -44.5 -44s-44.167 -12 -75.5 -6c-31.333 3.33301 -54.166 16.833 -68.499 40.5s-23 52.834 -26 87.501
s-1.83301 73 3.5 115s12 83.167 20 123.5s16 77.833 24 112.5s13 62.334 15 83.001c2.66699 14.667 3 27.5 1 38.5s-5.16699 20.167 -9.5 27.5s-10 13.333 -17 18s-14.167 8 -21.5 10c-17.333 5.33301 -38.333 6.66602 -63 3.99902c-4 2 -10.167 2.5 -18.5 1.5
s-17.666 -1.83301 -27.999 -2.5s-20.833 -0.5 -31.5 0.5s-19.834 4.33301 -27.501 10s-13.334 14.667 -17.001 27s-3.83398 29.5 -0.500977 51.5c1.33301 14.667 4.83301 27.5 10.5 38.5s12.5 20.167 20.5 27.5s17 13.333 27 18s20 8.33398 30 11.001
c23.333 6 49.333 7.66699 78 5z" />
    <glyph glyph-name="U" unicode="U" 
d="M153 663c0 12 3.32715 24.0039 9.99414 36.0039s15.167 22.333 25.5 31s22 15.167 35 19.5s25.833 5.16602 38.5 2.49902c30 -4.66699 52.667 -15.334 68 -32.001s25.333 -42.334 30 -77.001c2 -11.333 2.83301 -29.333 2.5 -54s-1.16602 -52.167 -2.49902 -82.5
s-3 -61.666 -5 -93.999s-4 -62 -6 -89l-5 -67.5c-1.33301 -18 -2 -27.667 -2 -29c0 -2 -1.33301 -8.83301 -4 -20.5s-5.16699 -25.667 -7.5 -42s-3.66602 -34.166 -3.99902 -53.499s1.66699 -37.5 6 -54.5s11.666 -31.833 21.999 -44.5s25.5 -20.667 45.5 -24
c24.667 -2 43 5 55 21s19.667 37.167 23 63.5s2.83301 56 -1.5 89s-10.166 66 -17.499 99s-15.5 64.167 -24.5 93.5s-16.833 53 -23.5 71c-10 27.333 -17.5 55.666 -22.5 84.999s-4.83301 57 0.5 83s17.333 48.833 36 68.5s46.667 33.5 84 41.5
c26.667 4.66699 48.834 3.5 66.501 -3.5s32 -17.333 43 -31s19.333 -29.5 25 -47.5s9.5 -35.5 11.5 -52.5s3 -32.333 3 -46v-28.5c0 -4.66699 0.333008 -16 1 -34l2.5 -65.5c1 -25.667 2.16699 -54 3.5 -85l4 -92.5c1.33301 -30.667 2.83301 -60 4.5 -88
s3.16699 -52 4.5 -72c2 -21.333 1.16699 -44.333 -2.5 -69s-10.167 -48.834 -19.5 -72.501s-22 -46.334 -38 -68.001s-35.667 -40.167 -59 -55.5s-50.666 -27 -81.999 -35s-66.666 -10.333 -105.999 -7s-73.166 10.666 -101.499 21.999s-52 25 -71 41s-34 33.5 -45 52.5
s-19 37.833 -24 56.5s-7.83301 36.334 -8.5 53.001s-0.333984 30.667 0.999023 42c1.33301 8.66699 2.83301 24.5 4.5 47.5s3.33398 50.5 5.00098 82.5l5.5 105c2 38 3.66699 76 5 114z" />
    <glyph glyph-name="V" unicode="V" 
d="M204 581l9 -18.5029l10 -21.5c3.33301 -8 7 -16.333 11 -25l52 -102l20 -42l19 -40.5l16 -36l11 -26.5c15.333 -21.333 28.5 -33 39.5 -35s24.167 2.66699 39.5 14c7.33301 5.33301 14.333 16.333 21 33s13.334 36.5 20.001 59.5l21.5 74.5
c7.66699 26.667 16.5 52.667 26.5 78c7.33301 22 16 43 26 63s21.833 36.667 35.5 50s29.167 22.333 46.5 27s37 2.66699 59 -6c16.667 -4 29.667 -11.167 39 -21.5s16 -22.666 20 -36.999s6 -29.833 6 -46.5s-1.33301 -33 -4 -49s-6 -31.167 -10 -45.5
s-7.66699 -26.166 -11 -35.499c-3.33301 -7.33301 -8.16602 -18.833 -14.499 -34.5l-21.5 -54l-26.5 -65l-29.5 -68l-29 -63c-9.33301 -19.667 -18 -35.834 -26 -48.501c-10 -20 -21.667 -40.5 -35 -61.5s-27.833 -40.167 -43.5 -57.5s-32 -31.666 -49 -42.999
s-34.167 -17 -51.5 -17c-20 0 -37.5 3.16699 -52.5 9.5s-28 14.333 -39 24s-20.333 20.334 -28 32.001s-13.834 23.167 -18.501 34.5c-3.33301 5.33301 -9.66602 17.5 -18.999 36.5l-33.5 68l-41.5 85l-42.5 88.5l-36.5 79c-10.667 24 -18.334 42.333 -23.001 55
c-10 22.667 -17 42.667 -21 60s-4.66699 33.166 -2 47.499s8.16699 28 16.5 41s20.166 26.5 35.499 40.5c14.667 14 28.5 21.833 41.5 23.5s24.5 0.833984 34.5 -2.49902c12 -4 22.667 -11 32 -21z" />
    <glyph glyph-name="W" unicode="W" 
d="M76 611c38.667 -3.33301 69.8291 -10.667 93.4961 -22s42 -25 55 -41s21.5 -33.333 25.5 -52s6 -36.834 6 -54.501s-1.16699 -34 -3.5 -49s-3.5 -26.833 -3.5 -35.5c0 -13.333 -1.33301 -27.5 -4 -42.5s-4.5 -31.333 -5.5 -49s0.333008 -36.667 4 -57
s12.167 -41.833 25.5 -64.5c6.66699 -16 12.834 -24.667 18.501 -26s11.334 1.33398 17.001 8.00098s11.334 16.167 17.001 28.5s11.834 24.333 18.501 36s14 22 22 31s17.333 13.5 28 13.5c15.333 -2 27.666 -9.66699 36.999 -23s18.166 -27.333 26.499 -42
s17.5 -28 27.5 -40s24 -18 42 -18c20.667 0 34.834 8.33301 42.501 25s12 36.834 13 60.501s0.333008 48.334 -2 74.001s-3.5 47.5 -3.5 65.5c0 12 1 26.167 3 42.5s5.5 33.166 10.5 50.499s11.667 34.166 20 50.499s19 30 32 41s28.333 18.333 46 22
s38.167 2.16699 61.5 -4.5c25.333 -4.66699 45 -14 59 -28s23.667 -30.5 29 -49.5s7.33301 -39.167 6 -60.5s-4.33301 -41.666 -9 -60.999s-10.167 -36.666 -16.5 -51.999s-11.833 -26.333 -16.5 -33l-21.5 -35l-30 -48.5l-34 -55.5l-33.5 -56
c-10.667 -18 -19.834 -34.833 -27.501 -50.5s-13.167 -28.5 -16.5 -38.5c-7.33301 -13.333 -15.5 -25.5 -24.5 -36.5s-18.333 -20.333 -28 -28s-19.5 -13.167 -29.5 -16.5s-20 -3.33301 -30 0c-20.667 0 -34.667 6.5 -42 19.5s-13.666 29.5 -18.999 49.5
c-20 41.333 -40.667 62 -62 62c-5.33301 2.66699 -10.333 1.83398 -15 -2.49902s-9.16699 -10 -13.5 -17s-8.33301 -14.5 -12 -22.5s-6.5 -14.667 -8.5 -20c0 -2.66699 -0.833008 -6.83398 -2.5 -12.501s-5.5 -11.5 -11.5 -17.5s-14.333 -11.833 -25 -17.5
s-25 -9.5 -43 -11.5c-18 0 -34 5 -48 15s-26.167 22.167 -36.5 36.5s-18.666 29.666 -24.999 45.999s-10.833 30.5 -13.5 42.5c-5.33301 10.667 -12.166 30.167 -20.499 58.5l-29.5 99l-37.5 120c-13.667 42.333 -28.167 82.5 -43.5 120.5c-9.33301 20 -15.5 38 -18.5 54
s-3.83301 30 -2.5 42s4.16602 22.167 8.49902 30.5s9.5 15.5 15.5 21.5c14 13.333 33.333 21.666 58 24.999z" />
    <glyph glyph-name="X" unicode="X" 
d="M142 543c24.667 18.667 46.6709 30.833 66.0039 36.5s36.166 7.16699 50.499 4.5s26.666 -8.33398 36.999 -17.001s18.833 -18.167 25.5 -28.5s12 -20.333 16 -30s6.66699 -16.5 8 -20.5c0 -9.33301 0.833008 -19.5 2.5 -30.5s5.16699 -21.167 10.5 -30.5
s12.833 -17.166 22.5 -23.499s22.834 -9.5 39.501 -9.5c16 0 29 4.5 39 13.5s17.833 19.167 23.5 30.5s10 22.666 13 33.999s5.5 19.666 7.5 24.999c1.33301 2.66699 3.83301 8.83398 7.5 18.501s8.66699 20.5 15 32.5s13.833 24 22.5 36s19 22 31 30s25.5 12.833 40.5 14.5
s31.833 -2.16602 50.5 -11.499c28 -16 44.833 -34 50.5 -54s5.33398 -39.5 -0.999023 -58.5s-16.333 -36.667 -30 -53s-26.167 -29.166 -37.5 -38.499c-14 -11.333 -26.333 -22 -37 -32s-19.834 -20.833 -27.501 -32.5s-13.834 -24.834 -18.501 -39.501
s-8.33398 -32.334 -11.001 -53.001c-2 -18.667 1.33301 -35.167 10 -49.5s19.334 -26.666 32.001 -36.999s25.667 -19 39 -26s23.666 -12.833 30.999 -17.5c6.66699 -2 14.5 -7.33301 23.5 -16s16.167 -19 21.5 -31s7.33301 -25.167 6 -39.5s-9 -28.5 -23 -42.5
c-11.333 -16 -24.166 -26.833 -38.499 -32.5s-28.166 -8 -41.499 -7s-25.5 4.5 -36.5 10.5s-18.833 12.667 -23.5 20c-13.333 13.333 -28.166 25 -44.499 35s-38.166 19.667 -65.499 29c-16 2 -31 -1.33301 -45 -10s-26.167 -19.334 -36.5 -32.001
s-18.833 -25.667 -25.5 -39s-11 -23.333 -13 -30s-9.83301 -15.334 -23.5 -26.001s-29.5 -18.834 -47.5 -24.501s-36.5 -7 -55.5 -4s-35.5 15.167 -49.5 36.5c-14 22.667 -20.333 44.667 -19 66s6.66602 40.333 15.999 57s20.5 30.5 33.5 41.5s24.167 17.5 33.5 19.5
l35.5 15c12.333 5.33301 23.833 12.333 34.5 21s19.834 19.667 27.501 33s12.5 30.333 14.5 51c0 18.667 -6.83301 35.667 -20.5 51s-31.334 29.333 -53.001 42s-45.667 24.334 -72 35.001l-77.5 30c-12.667 6 -21.834 12.667 -27.501 20s-8.83398 15.333 -9.50098 24
s0.666016 17.334 3.99902 26.001s7.66602 17.334 12.999 26.001c12.667 20 31.667 40.667 57 62z" />
    <glyph glyph-name="Y" unicode="Y" 
d="M296 563c5.33301 -7.33301 11.3291 -18.1719 17.9961 -32.5049s14.334 -28.5 23.001 -42.5s18.667 -25.667 30 -35s24.333 -13 39 -11c15.333 0 29.333 4.16699 42 12.5s24.667 19.5 36 33.5s22.166 30.167 32.499 48.5s20.5 37.5 30.5 57.5s23.833 37 41.5 51
s35.667 23.833 54 29.5s35.5 6.16699 51.5 1.5s27.667 -15.667 35 -33s11.333 -38 12 -62s-3 -49.667 -11 -77s-21 -55 -39 -83s-42 -54.667 -72 -80c-20 -16.667 -35.167 -34.5 -45.5 -53.5s-17.333 -38.167 -21 -57.5s-4.66699 -38.333 -3 -57s4.33398 -36 8.00098 -52
s7.5 -30.167 11.5 -42.5s7 -21.833 9 -28.5c0 -4.66699 1 -12.667 3 -24s3.33301 -24.166 4 -38.499s0 -29 -2 -44s-7.16699 -28.833 -15.5 -41.5s-20.5 -23 -36.5 -31s-37.333 -12 -64 -12c-28.667 0 -51.167 3.5 -67.5 10.5s-28.5 16.833 -36.5 29.5
s-12.5 27.834 -13.5 45.501s-0.5 37.334 1.5 59.001s4.83301 44.834 8.5 69.501s6.5 50.667 8.5 78c1.33301 28 -2.5 53.833 -11.5 77.5s-21.333 45.167 -37 64.5s-33.667 36.5 -54 51.5s-40.833 28.167 -61.5 39.5s-40.667 21 -60 29l-49 20
c-22.667 10 -39 22.167 -49 36.5s-13.5 29.333 -10.5 45s12.833 31.334 29.5 47.001s40 29.5 70 41.5c14.667 7.33301 28.334 12.5 41.001 15.5s24.334 4.33301 35.001 4s20.167 -2 28.5 -5s15.5 -6.83301 21.5 -11.5c14.667 -10.667 26.334 -25 35.001 -43z" />
    <glyph glyph-name="Z" unicode="Z" 
d="M150 594c18 6 37.832 10.833 59.499 14.5s44.167 6.5 67.5 8.5s47.166 3.16699 71.499 3.5s47.5 0.5 69.5 0.5c52 -0.666992 105.333 -3.33398 160 -8.00098c0 -2 5.5 -3.66699 16.5 -5s23.333 -4 37 -8s26.667 -10.833 39 -20.5s19.5 -23.834 21.5 -42.501
c1.33301 -12.667 -1 -26.667 -7 -42s-14.5 -31.333 -25.5 -48s-23.5 -33.167 -37.5 -49.5s-28.333 -32 -43 -47s-28.834 -28.667 -42.501 -41l-34.5 -30.5c-14.667 -14 -30.667 -27.667 -48 -41s-33.5 -26.5 -48.5 -39.5s-27 -26.167 -36 -39.5s-12.167 -27 -9.5 -41
c4 -12 15.5 -19.667 34.5 -23s40 -4.33301 63 -3s45.833 3.83301 68.5 7.5s40 6.83398 52 9.50098c12 2 25.167 3.33301 39.5 4s27.833 -1.16602 40.5 -5.49902s23.167 -11.666 31.5 -21.999s12.5 -24.833 12.5 -43.5c0 -19.333 -3.16699 -36 -9.5 -50
s-14.666 -25.833 -24.999 -35.5s-21.666 -16.834 -33.999 -21.501s-24.5 -7 -36.5 -7c-8 0 -23.833 -2 -47.5 -6s-51.167 -7.83301 -82.5 -11.5s-65 -6.66699 -101 -9s-70.167 -1.66602 -102.5 2.00098s-61.333 11 -87 22s-44.167 27.5 -55.5 49.5
c-9.33301 22 -10 46.667 -2 74s21 54.833 39 82.5s39 54.5 63 80.5s47.167 49.5 69.5 70.5s41.666 38 57.999 51l28.5 22.5c4.66699 4.66699 10.334 9.5 17.001 14.5s12.334 10.167 17.001 15.5s7.83398 10.833 9.50098 16.5s0.166992 12.167 -4.5 19.5s-14 11.333 -28 12
s-30.333 -0.5 -49 -3.5s-38 -7.16699 -58 -12.5l-55 -15c-16.667 -7.33301 -33.5 -12.333 -50.5 -15s-32.667 -1.5 -47 3.5s-26.5 14.5 -36.5 28.5s-16.333 34 -19 60c-5.33301 26 -4.33301 46.667 3 62s16.666 26.666 27.999 33.999c12.667 8.66699 28 14.667 46 18z" />
    <glyph glyph-name="backslash" unicode="\" 
d="M316 586l151.998 -245.999l58 -93l53.5 -84l42 -64.5c11.667 -17.667 19.5 -28.834 23.5 -33.501c8 -9.33301 15.5 -20.666 22.5 -33.999s12.333 -27.333 16 -42s4.83398 -29.167 3.50098 -43.5s-6.66602 -26.833 -15.999 -37.5c-8 -11.333 -17 -20.333 -27 -27
s-20.5 -9.66699 -31.5 -9s-21.833 5.83398 -32.5 15.501s-21 24.834 -31 45.501c-4.66699 9.33301 -12.5 23.666 -23.5 42.999l-39 66.5l-49 81.5l-54 88l-53.5 85l-47.5 74l-36.5 54.5c-10 14.333 -16.667 23.166 -20 26.499c-4.66699 8 -10.5 20.167 -17.5 36.5
s-12.333 33.166 -16 50.499s-4 33.5 -1 48.5s12.5 25.167 28.5 30.5c16 6 30 7.66699 42 5s22 -6.66699 30 -12c9.33301 -6.66699 17.333 -15 24 -25z" />
    <glyph glyph-name="a" unicode="a" 
d="M647 584c14 -7.33301 25.999 -14.665 35.999 -21.998s17.5 -16.166 22.5 -26.499s7.33301 -22.5 7 -36.5s-3.83301 -31.333 -10.5 -52c-7.33301 -20.667 -13.333 -47.167 -18 -79.5s-7.66699 -66.333 -9 -102s-1 -71.334 1 -107.001s6.33301 -67.5 13 -95.5
c6.66699 -48 8.16699 -85 4.5 -111s-19.167 -39 -46.5 -39c-17.333 -3.33301 -32.833 -5.5 -46.5 -6.5s-25.5 0.666992 -35.5 5s-18.333 12 -25 23s-11.667 26.833 -15 47.5c-7.33301 20 -14.166 31.833 -20.499 35.5s-12.166 3.33398 -17.499 -0.999023
s-9.5 -10.5 -12.5 -18.5s-4.5 -13.333 -4.5 -16c-2.66699 -2.66699 -8.66699 -8.33398 -18 -17.001s-21.5 -18.334 -36.5 -29.001s-32 -21.167 -51 -31.5s-39.167 -18.166 -60.5 -23.499s-43.666 -7 -66.999 -5s-46.333 10 -69 24c-22.667 11.333 -40.834 27 -54.501 47
s-24 42.167 -31 66.5s-11.5 49.666 -13.5 75.999s-2.83301 51.333 -2.5 75s1.33301 44.834 3 63.501s2.5 32.667 2.5 42s2.5 26.5 7.5 51.5s13.667 52.333 26 82s28.5 58.667 48.5 87s45.167 50.166 75.5 65.499s66.333 21.166 108 17.499s89.834 -22.5 144.501 -56.5
c5.33301 -10 10.666 -17 15.999 -21c4.66699 -3.33301 9.5 -4.33301 14.5 -3s9.16699 9.33301 12.5 24c3.33301 10 9 20.333 17 31s17.5 20 28.5 28s23.167 13.167 36.5 15.5s26.666 -0.166992 39.999 -7.5zM404.999 108.001c28.667 0 49 6.50098 61 19.501s19.333 30 22 51
s2.66699 44.5 0 70.5s-4 52.333 -4 79c0 19.333 -4.16699 32 -12.5 38s-17.5 9.33301 -27.5 10c-12 0 -25 -2.66699 -39 -8c-14.667 -14 -28.334 -29 -41.001 -45c-11.333 -13.333 -23 -28.833 -35 -46.5s-22 -35.834 -30 -54.501c-10.667 -20 -14.667 -39 -12 -57
s9.83398 -33 21.501 -45s26.167 -19.5 43.5 -22.5s35 0.5 53 10.5z" />
    <glyph glyph-name="b" unicode="b" 
d="M604 214c15.333 -6 29.502 -15 42.502 -27s23.667 -26 32 -42s13.666 -33.667 15.999 -53s0.5 -39.666 -5.5 -60.999c-2 -14.667 -7 -31.667 -15 -51s-18.5 -39.333 -31.5 -60s-28.333 -41.167 -46 -61.5s-37.5 -38.5 -59.5 -54.5s-45.833 -29 -71.5 -39
s-52.834 -15 -81.501 -15c-58 6 -103.667 21.667 -137 47s-57.666 55.166 -72.999 89.499s-23 70.833 -23 109.5s4.66699 74.667 14 108c6 15.333 11.833 35 17.5 59s11 50.333 16 79s9.66699 58.667 14 90l12.5 93c8.66699 71.333 17 147.666 25 228.999
c3.33301 14.667 9 32.5 17 53.5s19.167 40.167 33.5 57.5s32.333 31 54 41s47.834 12 78.501 6c22 -6 38.5 -16.167 49.5 -30.5s17.833 -31.666 20.5 -51.999s1.66699 -42.833 -3 -67.5s-11 -50.5 -19 -77.5s-17.5 -54.333 -28.5 -82l-31.5 -81.5
c-12 -24.667 -17.333 -46.167 -16 -64.5s7.16602 -34.5 17.499 -48.5s23.666 -26 39.999 -36s33.333 -18.667 51 -26s34.667 -13.5 51 -18.5s29.5 -9.5 39.5 -13.5zM480.002 -23c0 9.33301 1.5 18.832 4.5 28.499s4.5 19.5 4.5 29.5s-3.33301 19.833 -10 29.5
s-20 19.167 -40 28.5c-20 0 -39.667 -1.66699 -59 -5s-38.666 -14.333 -57.999 -33c-6 -15.333 -9 -30 -9 -44c0 -12 3.16699 -24.833 9.5 -38.5s19.166 -25.167 38.499 -34.5s36.5 -12.666 51.5 -9.99902s27.5 7.66699 37.5 15c12 8 22 19.333 30 34z" />
    <glyph glyph-name="c" unicode="c" 
d="M521 567c26.667 -9.33301 50.999 -21.6689 72.999 -37.002c18 -13.333 34.667 -30 50 -50s23 -44.667 23 -74c0 -22 -3.66699 -40 -11 -54s-16.833 -25.167 -28.5 -33.5s-24.667 -13.833 -39 -16.5s-28.5 -3.66699 -42.5 -3s-27.167 2.83398 -39.5 6.50098
s-22.166 8.16699 -29.499 13.5c-11.333 3.33301 -23 7.16602 -35 11.499s-23.5 6 -34.5 5s-20.833 -5.83301 -29.5 -14.5s-14.667 -24 -18 -46c-7.33301 -44 3 -77 31 -99s71.333 -33 130 -33c29.333 0 51.166 -4.83301 65.499 -14.5s24.166 -21.334 29.499 -35.001
s7.83301 -28 7.5 -43s-0.5 -27.833 -0.5 -38.5c0 -7.33301 -4 -18.166 -12 -32.499s-21.667 -28 -41 -41s-44.833 -23 -76.5 -30s-71.5 -6.83301 -119.5 0.5c-47.333 7.33301 -88.833 26.333 -124.5 57s-63 68.834 -82 114.501s-28.833 96.667 -29.5 153
s10 113.833 32 172.5c10.667 29.333 23.834 54 39.501 74s32.834 36.5 51.501 49.5s38 23 58 30s39.667 11.833 59 14.5c45.333 6.66699 93 4.33398 143 -6.99902z" />
    <glyph glyph-name="d" unicode="d" 
d="M238 214c10 4 23.166 8.5 39.499 13.5s33.333 11.167 51 18.5s34.667 16 51 26s29.666 22 39.999 36s16.166 30.167 17.499 48.5s-4 39.833 -16 64.5l-31.5 81.5c-11 27.667 -20.667 55 -29 82s-14.666 52.833 -18.999 77.5s-5.16602 47.167 -2.49902 67.5
s9.33398 37.666 20.001 51.999s27.334 24.5 50.001 30.5c30.667 6 56.834 4 78.501 -6s39.667 -23.667 54 -41s25.5 -36.5 33.5 -57.5s13.667 -38.833 17 -53.5c7.33301 -81.333 15.333 -157.666 24 -228.999l12.5 -93c4.33301 -31.333 9.16602 -61.333 14.499 -90
s10.833 -55 16.5 -79s11.5 -43.667 17.5 -59c9.33301 -33.333 14 -69.333 14 -108s-7.66699 -75.167 -23 -109.5s-39.666 -64.166 -72.999 -89.499s-79 -41 -137 -47c-28.667 0 -55.834 5 -81.501 15s-49.5 23 -71.5 39s-41.833 34.167 -59.5 54.5s-33 40.833 -46 61.5
s-23.5 40.667 -31.5 60s-13 36.333 -15 51c-6 21.333 -7.83301 41.666 -5.5 60.999s7.66602 37 15.999 53s19 30 32 42s27.167 21 42.5 27zM361.999 -23c8 -14.667 18 -25.999 30 -33.999c10 -7.33301 22.5 -12.333 37.5 -15s32.167 0.666016 51.5 9.99902
s32.166 20.833 38.499 34.5s9.5 26.5 9.5 38.5c0 14 -3 28.667 -9 44c-19.333 18.667 -38.666 29.667 -57.999 33s-39 5 -59 5c-20 -9.33301 -33.333 -18.833 -40 -28.5s-10 -19.5 -10 -29.5s1.5 -19.833 4.5 -29.5s4.5 -19.167 4.5 -28.5z" />
    <glyph glyph-name="e" unicode="e" 
d="M568 59c-26 4 -46.8291 5.16895 -62.4961 3.50195s-27.334 -5.16699 -35.001 -10.5s-11.834 -12.666 -12.501 -21.999s1 -19.666 5 -30.999s11 -18.333 21 -21s21 -3 33 -1s24 5.33301 36 10s21.667 8.66699 29 12c4 4 11.667 7.16699 23 9.5
s23.166 0.666016 35.499 -5.00098s23.166 -16.834 32.499 -33.501s14 -42 14 -76c0 -16.667 -8.33301 -32.834 -25 -48.501s-38.5 -28.5 -65.5 -38.5s-57.5 -16.5 -91.5 -19.5s-68.167 -0.5 -102.5 7.5s-67.666 22.5 -99.999 43.5s-60 50.167 -83 87.5
s-40 84.166 -51 140.499s-12.833 123.833 -5.5 202.5c10.667 56 28.667 105.333 54 148c10.667 18 23.5 35.667 38.5 53s32.5 32.5 52.5 45.5s42.833 23 68.5 30s54.5 9.5 86.5 7.5c63.333 -3.33301 114.5 -14.5 153.5 -33.5s69.333 -42 91 -69s36.167 -56.5 43.5 -88.5
s11 -63 11 -93s-5.16699 -57.667 -15.5 -83s-24.333 -47.5 -42 -66.5s-38.334 -33.833 -62.001 -44.5s-48.5 -16 -74.5 -16zM520.004 329.002c-10.667 0 -21.334 -2.5 -32.001 -7.5s-20.334 -11.833 -29.001 -20.5s-15.667 -18.334 -21 -29.001s-8 -21.667 -8 -33
c9.33301 -8.66699 19 -16.334 29 -23.001c8.66699 -5.33301 18.334 -10.333 29.001 -15s21.334 -7 32.001 -7h48c11.333 0 19.833 2.33301 25.5 7s10.167 9.66699 13.5 15c3.33301 6.66699 5.33301 14.334 6 23.001c0 11.333 -0.166992 22.333 -0.5 33s-2 20.334 -5 29.001
s-7.5 15.5 -13.5 20.5s-14.667 7.5 -26 7.5h-48z" />
    <glyph glyph-name="f" unicode="f" 
d="M278 556c0 38.667 7.00098 71.1719 21.001 97.5049s33.5 46.166 58.5 59.499s55 19.833 90 19.5s73.167 -7.83301 114.5 -22.5c25.333 -10 47.166 -23.667 65.499 -41s33.166 -36.5 44.499 -57.5s19.666 -43 24.999 -66s8.16602 -44.667 8.49902 -65
s-1.66699 -38.5 -6 -54.5s-10.5 -28 -18.5 -36c-12 -8.66699 -25.167 -14.834 -39.5 -18.501s-27.666 -3.33398 -39.999 0.999023s-23.333 13.666 -33 27.999s-15.834 34.833 -18.501 61.5c0 29.333 -5 49.333 -15 60s-21.333 15.334 -34 14.001s-24.834 -7 -36.501 -17
s-18.834 -21 -21.501 -33s-5.16699 -25 -7.5 -39s-2.66602 -27 -0.999023 -39s5.83398 -21.833 12.501 -29.5s17.334 -11.5 32.001 -11.5c18 0 31.667 -3.33301 41 -10s16.333 -14.834 21 -24.501s7.33398 -20 8.00098 -31s1 -20.833 1 -29.5s-1 -16 -3 -22
s-5.83301 -10.833 -11.5 -14.5s-14 -6.33398 -25 -8.00098s-25.5 -2.5 -43.5 -2.5s-32.5 -5 -43.5 -15s-19.5 -24 -25.5 -42s-10 -39.333 -12 -64s-3 -51.667 -3 -81c0 -20 0.666992 -41.667 2 -65s2.16602 -46.666 2.49902 -69.999s-0.5 -45.666 -2.5 -66.999
s-6.5 -39.666 -13.5 -54.999s-17 -26.833 -30 -34.5s-30.5 -9.5 -52.5 -5.5c-19.333 2 -33.833 11.667 -43.5 29s-15.667 39.166 -18 65.499s-2 55.333 1 87s6.83301 62.5 11.5 92.5s9.66699 57.5 15 82.5s9 44.5 11 58.5c2.66699 24 0.333984 42.5 -6.99902 55.5
s-16.5 22 -27.5 27s-22.333 7.16699 -34 6.5s-20.5 -2.33398 -26.5 -5.00098c-9.33301 0 -20.666 -0.166992 -33.999 -0.5s-26.333 1.66699 -39 6s-23.5 12.333 -32.5 24s-13.5 29.167 -13.5 52.5c0 20.667 4.16699 36.667 12.5 48s20 19.5 35 24.5s32.667 8 53 9
s42.166 1.5 65.499 1.5c12 -1.33301 22 0 30 4s14.5 9.66699 19.5 17s8.83301 16.166 11.5 26.499s4.33398 20.833 5.00098 31.5c2 25.333 0 54.333 -6 87z" />
    <glyph glyph-name="g" unicode="g" 
d="M717 60c1.33301 -52.667 -3.00195 -96.8311 -13.002 -132.498s-24.5 -64.834 -43.5 -87.501s-41.167 -40.167 -66.5 -52.5s-52.5 -21.5 -81.5 -27.5s-58.667 -9.83301 -89 -11.5s-59.5 -3.16699 -87.5 -4.5c-26.667 -2 -52.667 0.5 -78 7.5s-48.5 17 -69.5 30
s-38.833 28.5 -53.5 46.5s-24.167 37 -28.5 57s-2.83301 40.5 4.5 61.5s22.333 41.167 45 60.5c22.667 18 42.334 28.667 59.001 32s32 2.16602 46 -3.50098s27.333 -14.334 40 -26.001s26.667 -23.667 42 -36s32.5 -23.333 51.5 -33s41.833 -15.5 68.5 -17.5
c40 -2.66699 69.5 2.83301 88.5 16.5s31.833 31.5 38.5 53.5s9 45.833 7 71.5s-4.33301 49.167 -7 70.5s-9.33398 35.833 -20.001 43.5s-23.667 11.167 -39 10.5s-31.666 -4.33398 -48.999 -11.001s-34 -14 -50 -22c-10.667 -7.33301 -26.5 -14 -47.5 -20
s-43.667 -9.5 -68 -10.5s-49 1.66699 -74 8s-47.167 18 -66.5 35s-34 40.667 -44 71s-12.333 69.5 -7 117.5c2.66699 36.667 9 67.5 19 92.5s22.5 45.5 37.5 61.5s31.5 28 49.5 36s36.333 13.333 55 16c43.333 6.66699 92 1.33398 146 -15.999
c23.333 -10.667 40.5 -15 51.5 -13s18.167 6.33301 21.5 13c4 7.33301 4.33301 18 1 32c-1.33301 16 -0.666016 30 2.00098 42c2.66699 10.667 7.66699 20.334 15 29.001s19 13 35 13c29.333 0 51.333 -5 66 -15s25 -21 31 -33c7.33301 -14 10.333 -29.667 9 -47z
M382.998 291.003c12.667 0 24.668 6.5 36.001 19.5s17 33.5 17 61.5c0 12.667 -5.66699 24.667 -17 36s-23.333 17 -36 17c-26.667 0 -46.834 -5.66699 -60.501 -17s-20.5 -23.333 -20.5 -36c0 -54 27 -81 81 -81z" />
    <glyph glyph-name="h" unicode="h" 
d="M337 657c16.667 0 30.1729 -3.00195 40.5059 -9.00195s18.5 -13.5 24.5 -22.5s10.167 -18.833 12.5 -29.5s3.66602 -20.667 3.99902 -30s0.166016 -17.666 -0.500977 -24.999s-1 -11.666 -1 -12.999c0 -2 -0.5 -9.16699 -1.5 -21.5s-2.16699 -27.5 -3.5 -45.5l-4.5 -58.5
l-4.5 -59l-3.5 -48c-1 -13.667 -1.5 -22.167 -1.5 -25.5c-2.66699 -2.66699 -5.16699 -6.66699 -7.5 -12s-3.5 -10.5 -3.5 -15.5s1.5 -9 4.5 -12s8.16699 -3.16699 15.5 -0.5c17.333 10 32.166 15 44.499 15s22.5 -2.5 30.5 -7.5s14 -11.333 18 -19s6 -13.834 6 -18.501
c2.66699 -2 6 -8.66699 10 -20l15 -40.5c6 -15.667 13.5 -32.334 22.5 -50.001s19.833 -33.834 32.5 -48.501c10 -10 20.167 -22.333 30.5 -37s19.666 -30.167 27.999 -46.5s14.833 -33 19.5 -50s6.5 -32.667 5.5 -47s-5.66699 -26.666 -14 -36.999
s-21.5 -17.166 -39.5 -20.499c-27.333 -7.33301 -49 -7.16602 -65 0.500977s-28.333 19 -37 34s-14.667 31.5 -18 49.5s-6.33301 33 -9 45l-8.5 40c-3 14 -7 27.333 -12 40s-11.5 23.5 -19.5 32.5s-18 14.833 -30 17.5c-10 1.33301 -18.167 -1.66699 -24.5 -9
s-11.333 -17 -15 -29s-6.33398 -25.667 -8.00098 -41s-2.66699 -29.833 -3 -43.5s-0.333008 -25.667 0 -36s0.5 -17.166 0.5 -20.499s0.166992 -9.83301 0.5 -19.5s-0.166992 -20.5 -1.5 -32.5s-3.5 -24.5 -6.5 -37.5s-7.83301 -24.5 -14.5 -34.5
s-15.334 -17.667 -26.001 -23s-24.334 -6.33301 -41.001 -3c-21.333 2 -37.333 10.667 -48 26s-17.667 34.666 -21 57.999s-3.83301 49.333 -1.5 78s6 57.5 11 86.5s10.333 56.5 16 82.5s10.167 48 13.5 66c10 50 14.167 103.5 12.5 160.5s-12.167 122.833 -31.5 197.5
c-5.33301 18.667 -7.66602 35.334 -6.99902 50.001s3 27.667 7 39s9.5 21.166 16.5 29.499s14.5 15.5 22.5 21.5c18.667 14 41.667 23.667 69 29z" />
    <glyph glyph-name="i" unicode="i" 
d="M369 378c-10.667 -8 -20.332 -17.9971 -28.999 -29.9971c-7.33301 -10.667 -14.5 -24 -21.5 -40s-11.5 -35.667 -13.5 -59c0 -20.667 -2 -44.167 -6 -70.5s-8.5 -52.333 -13.5 -78s-10.167 -49.834 -15.5 -72.501s-9 -41 -11 -55
c-4.66699 -14 -7.33398 -30.5 -8.00098 -49.5s2.16602 -37.167 8.49902 -54.5s16.833 -32 31.5 -44s34.667 -18 60 -18s45.833 5.66699 61.5 17s27.834 25.666 36.501 42.999s14.5 36.166 17.5 56.499s4.5 39.833 4.5 58.5c0 8.66699 -0.166992 20 -0.5 34
s-0.833008 29.167 -1.5 45.5s-1.16699 33.5 -1.5 51.5s-0.833008 35.667 -1.5 53c-2 40.667 -3.66699 83.667 -5 129c-4.66699 26.667 -11 48.667 -19 66c-7.33301 14.667 -16.833 25.167 -28.5 31.5s-26.5 1.5 -44.5 -14.5zM314.002 590.003
c2 6.66699 5.33496 13.6689 10.002 21.002c4 5.33301 9.66699 11.166 17 17.499s16.666 11.833 27.999 16.5s23 7 35 7s23 -2.33301 33 -7s18.167 -11.5 24.5 -20.5s9.5 -20.5 9.5 -34.5c0 -16 -0.5 -31.167 -1.5 -45.5s-4 -27 -9 -38s-13.333 -19.667 -25 -26
s-27.834 -9.5 -48.501 -9.5c-18 0 -32.5 3.66699 -43.5 11s-19 16.666 -24 27.999s-7.66699 24 -8 38s0.5 28 2.5 42z" />
    <glyph glyph-name="j" unicode="j" 
d="M490 439c-10.667 0.666992 -20.002 -2.32812 -28.002 -8.99512c-7.33301 -6 -13.833 -16 -19.5 -30s-8.5 -35 -8.5 -63c1.33301 -18.667 3.33301 -43.667 6 -75s4.66699 -65 6 -101s1.5 -72.5 0.5 -109.5s-4.16699 -70.333 -9.5 -100s-13.5 -54 -24.5 -73
s-25.833 -28.5 -44.5 -28.5c-26 -2.66699 -45.333 -0.166992 -58 7.5s-21.667 17.167 -27 28.5s-8 22.5 -8 33.5v23.5c0 2 0.166992 6.66699 0.5 14s-0.333984 14.666 -2.00098 21.999s-5.16699 14 -10.5 20s-14 9 -26 9c-12 2.66699 -23.833 2.66699 -35.5 0
s-21.667 -8.66699 -30 -18s-13.666 -22.333 -15.999 -39s0.166992 -38 7.5 -64c6.66699 -26 15.334 -49.833 26.001 -71.5s24.167 -40.334 40.5 -56.001s35.833 -28 58.5 -37s49.334 -13.5 80.001 -13.5s58.167 3.66699 82.5 11s45 19.166 62 35.499s30 37.666 39 63.999
s13.5 58.166 13.5 95.499c0 20 0.166992 42 0.5 66l1 75.5l1 79.5c0.333008 26.667 0.833008 52.667 1.5 78c1.33301 58.667 3 118.334 5 179.001c0.666992 10.667 -1.66602 19.667 -6.99902 27c-4.66699 6.66699 -12.834 12.167 -24.501 16.5
s-29.167 5.16602 -52.5 2.49902zM405.998 627.005c2.66699 6.66699 6.33203 13.6699 10.999 21.0029c4 6 9.66699 12.167 17 18.5s16.666 12.166 27.999 17.499c12 4.66699 24 7 36 7s23 -2.33301 33 -7s18.167 -11.834 24.5 -21.501s9.5 -21.5 9.5 -35.5
c0 -16.667 -0.5 -32.334 -1.5 -47.001s-4.16699 -27.5 -9.5 -38.5s-13.666 -19.833 -24.999 -26.5s-27.666 -10 -48.999 -10c-18.667 0 -33.334 3.66699 -44.001 11s-18.667 17 -24 29s-8.16602 25.167 -8.49902 39.5s0.5 28.5 2.5 42.5z" />
    <glyph glyph-name="k" unicode="k" 
d="M318 565c2.66699 15.333 5.66309 29.8271 8.99609 43.4941s8.5 25.667 15.5 36s16.667 18.5 29 24.5s28.833 9 49.5 9c15.333 0 26.833 -4.66699 34.5 -14s12.334 -21.833 14.001 -37.5s1.33398 -33.667 -0.999023 -54s-5.66602 -41.166 -9.99902 -62.499
s-9.16602 -42.333 -14.499 -63s-9.66602 -39.667 -12.999 -57c-2 -17.333 -1.5 -29.833 1.5 -37.5s7.33301 -12.167 13 -13.5s12 -0.333008 19 3s13.833 7.5 20.5 12.5s12.667 10 18 15l11 10.5c4.66699 0 12.834 3.83301 24.501 11.5s24.334 14 38.001 19
s26.834 6.33301 39.501 4s23 -13.833 31 -34.5c8 -31.333 8 -56.833 0 -76.5s-18.667 -35.334 -32 -47.001s-27.166 -19.667 -41.499 -24s-24.166 -6.5 -29.499 -6.5c-2.66699 0 -8.33398 -1.33301 -17.001 -4s-17.834 -7 -27.501 -13s-18.334 -13.5 -26.001 -22.5
s-11.5 -19.833 -11.5 -32.5c0 -13.333 4.66699 -28.5 14 -45.5s21 -34.5 35 -52.5s29.5 -35.667 46.5 -53s33.167 -32.333 48.5 -45c15.333 -10 27.333 -23.333 36 -40s13 -33.667 13 -51s-4.66699 -33.666 -14 -48.999s-24.333 -26.666 -45 -33.999
c-23.333 -5.33301 -42 -1.66602 -56 11.001s-26.167 29 -36.5 49s-20 40.833 -29 62.5s-19.833 38.834 -32.5 51.501c-10.667 10 -18.667 13.5 -24 10.5s-9.33301 -8.16699 -12 -15.5c-2.66699 -8.66699 -4.33398 -20.667 -5.00098 -36l-6 -34
c-1.33301 -9.33301 -2.5 -19.5 -3.5 -30.5s-1.5 -20.167 -1.5 -27.5c0 -5.33301 1 -13.666 3 -24.999s1.83301 -22.5 -0.5 -33.5s-8.83301 -20.167 -19.5 -27.5s-29 -9.66602 -55 -6.99902c-20.667 0 -36.5 5.16699 -47.5 15.5s-18.667 23.5 -23 39.5s-6.33301 33.667 -6 53
s1.66602 38.166 3.99902 56.499s4.83301 35 7.5 50s4 25.833 4 32.5c1.33301 4.66699 3.16602 16.834 5.49902 36.501s5 43.667 8 72l10 94.5c3.66699 34.667 7.16699 69.667 10.5 105z" />
    <glyph glyph-name="l" unicode="l" 
d="M322 521c0 5.33301 0.334961 14.0029 1.00195 26.0029s3.5 23.833 8.5 35.5s12.667 21.5 23 29.5s25.166 10.667 44.499 8c14.667 -3.33301 26.834 -11.333 36.501 -24s17.667 -27.667 24 -45s11 -36.333 14 -57s5 -40.834 6 -60.501s1 -38.334 0 -56.001
s-2.5 -31.834 -4.5 -42.501c0 -7.33301 0.166992 -19.666 0.5 -36.999s0.666016 -38 0.999023 -62s0.833008 -50 1.5 -78l2 -85c2 -66.667 4 -140 6 -220c5.33301 -26.667 6.66602 -50.334 3.99902 -71.001c-2 -18 -8 -34.333 -18 -49s-27.333 -22 -52 -22
c-15.333 -1.33301 -28.333 -0.5 -39 2.5s-19.667 7.33301 -27 13s-13.333 12.5 -18 20.5s-8 16.333 -10 25c-6 20 -7.33301 43.333 -4 70v679v0z" />
    <glyph glyph-name="m" unicode="m" 
d="M-5 402c0 10.667 3.16895 20.999 9.50195 30.999s14.166 18 23.499 24s19.833 9.33301 31.5 10s23.167 -3 34.5 -11c13.333 -8 25 -12.5 35 -13.5s18 -0.5 24 1.5c7.33301 2.66699 13.333 6.66699 18 12c18.667 19.333 37.667 34 57 44
c16.667 8.66699 34.5 12.834 53.5 12.501s36.833 -11.166 53.5 -32.499c16.667 -24 30.5 -42 41.5 -54s20.667 -20 29 -24s16.166 -4.83301 23.499 -2.5s15.5 5.66602 24.5 9.99902s19.5 9 31.5 14s27.333 8.16699 46 9.5c30.667 2.66699 57.5 -1.16602 80.5 -11.499
s42.667 -24.333 59 -42s29.166 -37.334 38.499 -59.001s15.666 -41.834 18.999 -60.501c0 -16.667 0.666992 -31.667 2 -45s3.83301 -29.333 7.5 -48l13.5 -70c5.33301 -28 12 -65 20 -111c0 -19.333 0.666992 -38.833 2 -58.5s0 -37.334 -4 -53.001
s-12.333 -28.334 -25 -38.001s-32.667 -14.5 -60 -14.5c-22 0 -39.5 5.5 -52.5 16.5s-23.167 25.667 -30.5 44s-12.166 38.833 -14.499 61.5s-3.66602 45.834 -3.99902 69.501s0.166992 46.5 1.5 68.5s2 41.333 2 58c6 43.333 3.83301 76.333 -6.5 99s-26.5 36.667 -48.5 42
c-10.667 2.66699 -20 1.66699 -28 -3s-14 -11.5 -18 -20.5s-6 -19.333 -6 -31s3 -22.834 9 -33.501c2.66699 -13.333 3.83398 -27 3.50098 -41s-3.33301 -26.833 -9 -38.5s-14.334 -21.334 -26.001 -29.001s-27.167 -11.5 -46.5 -11.5c-16 2.66699 -28.5 10.667 -37.5 24
s-15.5 27.5 -19.5 42.5s-6.33301 29 -7 42s-1 21.167 -1 24.5c0 2.66699 -0.166992 7 -0.5 13s-1.5 12 -3.5 18s-5.16699 11.333 -9.5 16s-10.5 7 -18.5 7c-8.66699 2.66699 -16.167 0.833984 -22.5 -5.49902s-12.166 -14.166 -17.499 -23.499
c-6 -10.667 -11 -23.334 -15 -38.001c-2 -25.333 -4.33301 -50.333 -7 -75c-2 -21.333 -4.5 -43.833 -7.5 -67.5l-8.5 -64.5c-2.66699 -19.333 -5 -37 -7 -53s-5.33301 -29.167 -10 -39.5s-11.5 -17.166 -20.5 -20.499s-21.5 -2 -37.5 4
c-19.333 2.66699 -33.166 9.83398 -41.499 21.501s-13.5 24.167 -15.5 37.5c-2.66699 15.333 -2 32 2 50l11 82c3.33301 22 6.16602 43.833 8.49902 65.5s3.5 37.834 3.5 48.501c0 14 -0.333008 28.167 -1 42.5s-3.16699 27.333 -7.5 39s-11 21.167 -20 28.5
s-21.833 11 -38.5 11c-16.667 3.33301 -29.5 10.333 -38.5 21s-15.5 21.667 -19.5 33c-4.66699 13.333 -7.33398 28.333 -8.00098 45z" />
    <glyph glyph-name="n" unicode="n" 
d="M115 452c8.66699 16 17.6699 28.6689 27.0029 38.002c8 8 17.167 13.667 27.5 17s21.166 -0.333984 32.499 -11.001c10.667 -8 20.334 -12.5 29.001 -13.5s16.167 -0.166992 22.5 2.5s11.666 6.33398 15.999 11.001l10.5 11c2.66699 0 7 4.5 13 13.5s14.833 19 26.5 30
s26.667 21 45 30s41.166 13.5 68.499 13.5c29.333 -2 53.666 -7.66699 72.999 -17s35.166 -20.833 47.499 -34.5s21.5 -28.5 27.5 -44.5s10.167 -31.5 12.5 -46.5s3.5 -28.5 3.5 -40.5v-26c0 -8 1.66699 -22.833 5 -44.5s8.83301 -46.167 16.5 -73.5
s17.834 -55.666 30.501 -84.999s28.667 -56.333 48 -81c18.667 -22 28.667 -44.833 30 -68.5s-3.83398 -45 -15.501 -64s-28.5 -34.667 -50.5 -47s-47 -18.5 -75 -18.5c-18 0 -32.667 8.5 -44 25.5s-20.333 38.167 -27 63.5s-11.334 53.166 -14.001 83.499
s-4.16699 59 -4.5 86s-0.166016 50 0.500977 69s1 30.5 1 34.5c0 8 -0.833008 18.833 -2.5 32.5s-4.83398 27 -9.50098 40s-11.167 24.167 -19.5 33.5s-19.5 14 -33.5 14s-24.667 -4.66699 -32 -14s-12.666 -19.666 -15.999 -30.999s-5.33301 -22.333 -6 -33
s-1 -17.334 -1 -20.001c2.66699 -2.66699 4.66699 -13 6 -31s2 -38.667 2 -62s-0.666992 -46.833 -2 -70.5s-3.33301 -42.5 -6 -56.5c0 -16.667 1.16699 -34.5 3.5 -53.5s2.16602 -36.333 -0.500977 -52s-9.66699 -28.167 -21 -37.5s-30.666 -12.666 -57.999 -9.99902
c-20 3.33301 -36 11.666 -48 24.999s-20.667 29.166 -26 47.499s-8.33301 38.166 -9 59.499s-0.166992 42.333 1.5 63s4 40 7 58s5.5 32.333 7.5 43c0 33.333 -5.83301 64.333 -17.5 93s-31.5 48.667 -59.5 60c-16.667 5.33301 -28.167 13 -34.5 23s-10.166 20 -11.499 30
c-2 11.333 -1 23.333 3 36z" />
    <glyph glyph-name="o" unicode="o" 
d="M541 532c35.333 -11.333 64 -27.168 86 -47.501s38.833 -43 50.5 -68s19.167 -51 22.5 -78s4.5 -52.667 3.5 -77s-3.33301 -46.166 -7 -65.499s-6.5 -33.333 -8.5 -42c-2.66699 -11.333 -8.16699 -26 -16.5 -44s-20 -36.5 -35 -55.5s-33.5 -36.833 -55.5 -53.5
s-47.5 -29.667 -76.5 -39s-61.833 -13.166 -98.5 -11.499s-77.334 11.5 -122.001 29.5c-32 13.333 -58.333 30 -79 50s-36.834 42 -48.501 66s-19.667 49.167 -24 75.5s-6.5 52.166 -6.5 77.499c0.666992 59.333 12.334 122.333 35.001 189c14 23.333 30.833 44.5 50.5 63.5
s44.334 33.5 74.001 43.5s65.167 14.5 106.5 13.5s91 -9.83301 149 -26.5zM580 153.998c0 4.66699 0.499023 12.3301 1.49902 22.9971s1.5 22.667 1.5 36s-1 27.5 -3 42.5s-6 29.167 -12 42.5s-14.5 25.333 -25.5 36s-25.5 18.334 -43.5 23.001
c-30 10 -56.167 15.333 -78.5 16s-41.5 -2 -57.5 -8s-29.333 -14.5 -40 -25.5s-19.334 -23.167 -26.001 -36.5c-12 -35.333 -18 -69 -18 -101c0 -13.333 1.16699 -27 3.5 -41s6.83301 -27.333 13.5 -40s15.334 -24.167 26.001 -34.5s24.667 -18.833 42 -25.5
c37.333 -14 69.5 -18.333 96.5 -13s49.333 14.833 67 28.5s30.834 28.334 39.501 44.001s13 26.834 13 33.501z" />
    <glyph glyph-name="p" unicode="p" 
d="M679 395c2.66699 -18 1.50195 -34.8359 -3.49805 -50.5029s-12.667 -29.834 -23 -42.501s-22.5 -23.167 -36.5 -31.5s-28.333 -13.833 -43 -16.5c-7.33301 -4 -18 -7.66699 -32 -11s-29 -7.16602 -45 -11.499s-31.833 -10.166 -47.5 -17.499s-29.167 -16.833 -40.5 -28.5
s-19.5 -26.167 -24.5 -43.5s-4.5 -38.666 1.5 -63.999l19 -73.5c6.66699 -25.667 12.5 -50.834 17.5 -75.501s8.33301 -48.167 10 -70.5s0.666992 -42.166 -3 -59.499s-10.834 -31.5 -21.501 -42.5s-25.667 -17.5 -45 -19.5c-29.333 -3.33301 -53.833 0.666992 -73.5 12
s-35.334 25.833 -47.001 43.5s-19.834 36.667 -24.501 57s-7 37.833 -7 52.5c2 72.667 3.33301 142 4 208c0 28 0.166992 56.333 0.5 85s0.333008 56.334 0 83.001s-0.833008 51.167 -1.5 73.5s-1.66699 40.833 -3 55.5c-6 29.333 -7.16699 61.166 -3.5 95.499
s14.334 65.833 32.001 94.5s43 51.834 76 69.501s76.167 25.167 129.5 22.5c38 -6 71.667 -20.833 101 -44.5s54 -50.5 74 -80.5s35 -60.5 45 -91.5s15 -56.833 15 -77.5zM487.002 369.997c12 0 21.333 5 28 15s11.667 21 15 33c3.33301 14 5.33301 30 6 48
c0 10 -0.5 20.333 -1.5 31s-4.5 20.334 -10.5 29.001s-15.667 15.834 -29 21.501s-32.333 8.5 -57 8.5c-24 -12.667 -42.5 -26.834 -55.5 -42.501s-22.5 -30.5 -28.5 -44.5c-7.33301 -16.667 -11.333 -33.334 -12 -50.001c12 -12 21.833 -21.333 29.5 -28s16 -11.5 25 -14.5
s20.333 -4.83301 34 -5.5s32.5 -1 56.5 -1z" />
    <glyph glyph-name="q" unicode="q" 
d="M618 -107c20 5.33301 36.998 7.00293 50.998 5.00293s25.333 -6.83301 34 -14.5s14.334 -17.334 17.001 -29.001s2.66699 -24.5 0 -38.5c-2.66699 -17.333 -7.5 -33.833 -14.5 -49.5s-18.167 -27.667 -33.5 -36s-36.166 -11.833 -62.499 -10.5
s-60.5 10.666 -102.5 27.999c-26.667 11.333 -47.667 29.333 -63 54s-26.833 52.334 -34.5 83.001s-12.167 63.167 -13.5 97.5s-1.33301 66.5 0 96.5s3.16602 56.667 5.49902 80s3.5 39.666 3.5 48.999c0 14 -1.16699 23.667 -3.5 29s-4.83301 8.66602 -7.5 9.99902
c-3.33301 1.33301 -7 0 -11 -4c-39.333 -6 -72.333 -5.33301 -99 2s-48.334 18.166 -65.001 32.499s-29.334 31 -38.001 50s-14.834 37.333 -18.501 55s-5.5 33.334 -5.5 47.001v26.5c0 4 0.333008 12 1 24s2.83398 26 6.50098 42s9.5 32.667 17.5 50s19.5 33.333 34.5 48
s34 26.834 57 36.501s51.167 14.5 84.5 14.5c26.667 0 49.834 -3.66699 69.501 -11s36.334 -16.833 50.001 -28.5s24.667 -25 33 -40s14.833 -30.167 19.5 -45.5c10.667 -36.667 14 -78.334 10 -125.001c-2 -58 -4.33301 -112 -7 -162c-1.33301 -21.333 -2.5 -43 -3.5 -65
s-2.16699 -42.667 -3.5 -62s-2.66602 -37 -3.99902 -53s-2.66602 -28.667 -3.99902 -38c0 -20 2.16699 -40 6.5 -60s10.666 -37.5 18.999 -52.5s18.833 -26 31.5 -33s27 -7.83301 43 -2.5zM433.998 418.003c5.33301 12 8.00098 22.999 8.00098 32.999
c0 8.66699 -2.66699 16.5 -8 23.5s-16.666 10.5 -33.999 10.5c-16.667 8.66699 -29.834 13.5 -39.501 14.5s-17.834 0.5 -24.501 -1.5s-13.334 -4.66699 -20.001 -8s-15.334 -5 -26.001 -5c-5.33301 -20 -7.66602 -38.667 -6.99902 -56
c0.666992 -15.333 4.33398 -30.666 11.001 -45.999s19.667 -27.333 39 -36c34 0 59.333 7.16699 76 21.5s25 30.833 25 49.5z" />
    <glyph glyph-name="r" unicode="r" 
d="M135 463c7.33301 22.667 16.832 40.4961 28.499 53.4961s24.334 22.5 38.001 28.5s27.5 9.16699 41.5 9.5s26.833 -1 38.5 -4s21.667 -7 30 -12s13.833 -9.83301 16.5 -14.5c4 -11.333 8.66699 -19.166 14 -23.499s10.833 -6.5 16.5 -6.5s11.167 1.5 16.5 4.5
s10 6.5 14 10.5s10 11.667 18 23s19 24 33 38s31.5 27.833 52.5 41.5s46.5 24.167 76.5 31.5c30 4 56.333 -0.5 79 -13.5s41.5 -29.667 56.5 -50s26.333 -42.666 34 -66.999s11.5 -45.833 11.5 -64.5c0 -15.333 -2 -29.333 -6 -42s-10.167 -23.167 -18.5 -31.5
s-19.333 -14.166 -33 -17.499s-29.834 -3.33301 -48.501 0c-15.333 4 -29.5 3.83301 -42.5 -0.5s-24.667 -10.833 -35 -19.5s-19.166 -18 -26.499 -28s-13 -19 -17 -27c-7.33301 -10.667 -11.5 -27.834 -12.5 -51.501s-0.5 -49.167 1.5 -76.5s4.33301 -54 7 -80
s4 -46.667 4 -62c0 -11.333 -0.5 -24.666 -1.5 -39.999s-4.83301 -30 -11.5 -44s-17 -25.833 -31 -35.5s-34 -14.5 -60 -14.5s-45.333 5 -58 15s-21 22.5 -25 37.5s-4.66699 31.167 -2 48.5s6 33.333 10 48c0 11.333 0.666992 28.333 2 51s2.5 46.667 3.5 72
s1.33301 50 1 74s-2.5 43.333 -6.5 58c-7.33301 18.667 -14.333 32.334 -21 41.001s-15.167 14.5 -25.5 17.5s-23.666 4.16699 -39.999 3.5s-37.5 -1 -63.5 -1c-22.667 -4 -38.5 0 -47.5 12s-14.167 26 -15.5 42c-2.66699 18.667 -1.33398 40.667 3.99902 66z" />
    <glyph glyph-name="s" unicode="s" 
d="M261 564c21.333 28 43.499 48.3291 66.499 60.9961s46 20.5 69 23.5s46 3 69 0l67.5 -8.5c22 -3.33301 38.667 -13.166 50 -29.499s18.166 -35 20.499 -56s0.5 -42.167 -5.5 -63.5s-15.333 -38.333 -28 -51c-15.333 -12 -27.5 -17.5 -36.5 -16.5
s-17.833 3.83301 -26.5 8.5s-18.334 8.83398 -29.001 12.501s-25.334 2.16699 -44.001 -4.5c-15.333 -3.33301 -23.333 -8.16602 -24 -14.499s1.66602 -13.166 6.99902 -20.499c6.66699 -8 16.334 -16.667 29.001 -26c21.333 -12.667 42 -28 62 -46
c17.333 -15.333 35.166 -34.5 53.499 -57.5s33.833 -50.167 46.5 -81.5c18.667 -59.333 24 -110.166 16 -152.499s-23.167 -77.833 -45.5 -106.5s-49.166 -51.167 -80.499 -67.5s-61 -27.5 -89 -33.5c-24.667 -6 -52.667 -8 -84 -6s-61 9.66699 -89 23
s-51.5 32.666 -70.5 57.999s-28.5 58 -28.5 98c0 40.667 8 72.167 24 94.5s35.333 37 58 44s45.834 6.83301 69.501 -0.5s43.167 -20.333 58.5 -39c12.667 -15.333 26.334 -24.5 41.001 -27.5s28.334 -3.5 41.001 -1.5c14.667 2.66699 29 8 43 16
c14 14.667 21 30.334 21 47.001c0 6.66699 -1.66699 14.167 -5 22.5s-9 16.833 -17 25.5s-19 17.667 -33 27s-31.667 18.666 -53 27.999c-32.667 10.667 -59.5 23.5 -80.5 38.5s-37.5 31 -49.5 48s-20.167 34.667 -24.5 53s-6.16602 36.166 -5.49902 53.499
c1.33301 40.667 13.333 83.334 36 128.001z" />
    <glyph glyph-name="t" unicode="t" 
d="M335 610c-0.666992 14 1.33984 26.0049 6.00684 36.0049c4 8.66699 11.333 15.667 22 21s26.667 5.66602 48 0.999023c18.667 -5.33301 31 -15 37 -29s8.66699 -29.833 8 -47.5s-3.16699 -35.834 -7.5 -54.501s-7.83301 -35 -10.5 -49c0 -12 0.5 -21.833 1.5 -29.5
s4.16699 -13 9.5 -16s13.666 -3.16699 24.999 -0.5s27.666 8.66699 48.999 18c23.333 7.33301 40.833 8.5 52.5 3.5s20.167 -12.167 25.5 -21.5c5.33301 -10.667 7.66602 -23.667 6.99902 -39v-83c0 -23.333 -10.167 -37.833 -30.5 -43.5s-44.5 -3.83398 -72.5 5.49902
c-12 4.66699 -21.667 2.66699 -29 -6s-13 -20.167 -17 -34.5s-6.83301 -29.333 -8.5 -45s-2.5 -28.167 -2.5 -37.5s2.16699 -19 6.5 -29s10.333 -19 18 -27s16.5 -14.667 26.5 -20s21 -8 33 -8c23.333 0 41.833 -6.66699 55.5 -20s20.5 -32 20.5 -56
c0 -14 -4.66699 -28 -14 -42s-22.833 -26 -40.5 -36s-39.334 -16.833 -65.001 -20.5s-54.834 -2.16699 -87.501 4.5c-22 4.66699 -38.833 14.667 -50.5 30s-19.834 33.333 -24.501 54s-6.66699 43.167 -6 67.5s2.66699 47.833 6 70.5s6.83301 43.667 10.5 63l8.5 45
c0 16 -2.66699 28.333 -8 37s-12.5 14.834 -21.5 18.501s-19 5.16699 -30 4.5s-22.5 -2 -34.5 -4c-9.33301 0 -19.666 -0.5 -30.999 -1.5s-22.333 0 -33 3s-20.5 9.16699 -29.5 18.5s-15.833 24.333 -20.5 45c-4.66699 18.667 -3.83398 34.167 2.49902 46.5
s16.333 21.666 30 27.999s30 10.166 49 11.499s38.833 1 59.5 -1c10.667 -1.33301 19.5 0.166992 26.5 4.5s12.833 10.333 17.5 18s8.16699 16.667 10.5 27s4.16602 20.833 5.49902 31.5c2.66699 25.333 1.66699 54.666 -3 87.999z" />
    <glyph glyph-name="u" unicode="u" 
d="M227 600c23.333 4 41.833 -0.333008 55.5 -13s24.167 -30.667 31.5 -54s12.166 -49.833 14.499 -79.5s3.33301 -59.334 3 -89.001s-1.33301 -57.334 -3 -83.001s-2.5 -45.834 -2.5 -60.501c0 -21.333 1 -40.666 3 -57.999s6.33301 -32 13 -44s15.667 -21.167 27 -27.5
s26.666 -9.5 45.999 -9.5c12.667 0 22.5 6.33301 29.5 19s11.833 29.167 14.5 49.5s4 43 4 68s-0.666992 49.667 -2 74s-2.83301 47.166 -4.5 68.499s-2.5 38.333 -2.5 51c0 22 0.833008 43.667 2.5 65s5.16699 40.333 10.5 57s12.833 30.167 22.5 40.5s22.5 15.5 38.5 15.5
s30.333 -3.66699 43 -11s23.167 -16.166 31.5 -26.499s14.833 -21.5 19.5 -33.5s7 -22.667 7 -32c0 -6.66699 1 -18.667 3 -36l7.5 -62l9.5 -77l9.5 -80c3 -26 5.5 -50 7.5 -72s3 -39.333 3 -52c0 -18.667 1.83301 -32 5.5 -40s7.83398 -14.667 12.501 -20
s8.83398 -11.333 12.501 -18s5.5 -17.667 5.5 -33c-3.33301 -16.667 -10 -29.5 -20 -38.5s-20.833 -15.5 -32.5 -19.5s-23.167 -6.33301 -34.5 -7s-20 -1 -26 -1c-4 2 -7.16699 4.33301 -9.5 7s-5.16602 4.66699 -8.49902 6s-7.83301 1.83301 -13.5 1.5
s-14.5 -2.16602 -26.5 -5.49902s-27.5 -8.66602 -46.5 -15.999s-43.167 -17.333 -72.5 -30s-57 -19 -83 -19s-49.5 4.5 -70.5 13.5s-39.667 21.5 -56 37.5s-29.833 34.167 -40.5 54.5s-18.334 41.5 -23.001 63.5s-6 43.333 -4 64v317c0 50 4.5 87.333 13.5 112
s19.167 41.667 30.5 51c12.667 11.333 27.667 15.333 45 12z" />
    <glyph glyph-name="v" unicode="v" 
d="M122 384c-24.667 24 -39.1689 48.3359 -43.502 73.0029s-0.833008 47 10.5 67s29.333 36.167 54 48.5s53.667 18.5 87 18.5c30.667 2.66699 54 -1.5 70 -12.5s28.5 -26.833 37.5 -47.5s16.667 -44.834 23 -72.501s15.5 -56.834 27.5 -87.501c15.333 -30 29 -48 41 -54
s22.667 -5.5 32 1.5s17 17.333 23 31s10.667 25.167 14 34.5c0 4 0.166992 11.167 0.5 21.5s1.83301 21.833 4.5 34.5s6.66699 25.667 12 39s13 24.666 23 33.999s22.5 15.833 37.5 19.5s33.833 2.5 56.5 -3.5c24 -6 42.833 -14.667 56.5 -26s23.334 -24 29.001 -38
s8.33398 -28.833 8.00098 -44.5s-2.33301 -30.5 -6 -44.5s-8.33398 -26.667 -14.001 -38s-10.5 -20 -14.5 -26c-2.66699 -9.33301 -5.66699 -22.333 -9 -39s-8.5 -36 -15.5 -58s-16.167 -46.5 -27.5 -73.5s-26 -55.833 -44 -86.5c-15.333 -30 -33.166 -47.667 -53.499 -53
s-40.666 -3 -60.999 7s-39.833 25.167 -58.5 45.5s-34.334 40.833 -47.001 61.5c-6 10.667 -14.333 22.5 -25 35.5l-35.5 41.5c-13 14.667 -26.833 29.5 -41.5 44.5l-43 43.5z" />
    <glyph glyph-name="w" unicode="w" 
d="M34 445c-2.66699 7.33301 -1.67285 17.166 2.99414 29.499s11.834 25.166 21.501 38.499s21.334 26.5 35.001 39.5s28.334 24.5 44.001 34.5s31.667 17.5 48 22.5s32.166 6.16699 47.499 3.5c18.667 -7.33301 35.667 -15.833 51 -25.5s27.666 -21.334 36.999 -35.001
s15.833 -29.334 19.5 -47.001s3.5 -37.834 -0.5 -60.501c-2.66699 -15.333 -8.66699 -29 -18 -41s-20.333 -23 -33 -33s-26.167 -19 -40.5 -27l-41 -23c-13 -7.33301 -24.167 -14.666 -33.5 -21.999s-15.333 -14.666 -18 -21.999c-5.33301 -8 -9.33301 -17.333 -12 -28
s-3.83398 -21 -3.50098 -31s3 -18.333 8 -25s13 -10 24 -10s25.167 4.83301 42.5 14.5s38.666 25.834 63.999 48.501c26 25.333 49 43 69 53s38.167 14.5 54.5 13.5s31.333 -6 45 -15s27 -19.333 40 -31l39.5 -36c13.333 -12.333 27.666 -22.166 42.999 -29.499
c22.667 -12 40.667 -15.167 54 -9.5s21.833 16.167 25.5 31.5s2.66699 33.5 -3 54.5s-16.167 41.167 -31.5 60.5s-25.666 40.666 -30.999 63.999s-5.66602 45.5 -0.999023 66.5s14.667 39.167 30 54.5s36.333 25 63 29c23.333 4 43.666 2.66699 60.999 -4
s32.333 -16.667 45 -30s22.834 -29.166 30.501 -47.499s13.5 -36.833 17.5 -55.5c4 -19.333 12.333 -40.166 25 -62.499l38 -69.5c12.667 -24 22.667 -48.167 30 -72.5s7 -47.833 -1 -70.5c-20.667 -40.667 -42.167 -72 -64.5 -94s-45.166 -37 -68.499 -45
s-46.666 -10.5 -69.999 -7.5s-45.666 9 -66.999 18s-41.666 19.667 -60.999 32l-52 33.5c-23.333 16 -44.666 25.333 -63.999 28s-37.5 0.666992 -54.5 -6s-33.333 -17.334 -49 -32.001s-31.167 -31.667 -46.5 -51c-19.333 -19.333 -38.166 -33.666 -56.499 -42.999
s-38.5 -13.5 -60.5 -12.5s-47 7.33301 -75 19s-61 29.167 -99 52.5c-19.333 11.333 -34 26 -44 44s-16.833 37.667 -20.5 59s-4.5 43.833 -2.5 67.5s5.33301 47.167 10 70.5c11.333 54 30.333 111.333 57 172z" />
    <glyph glyph-name="x" unicode="x" 
d="M127 458c10 22.667 24.168 39.667 42.501 51s38.5 16.5 60.5 15.5s44.667 -8 68 -21s44.666 -32.5 63.999 -58.5c10.667 -17.333 22 -28.666 34 -33.999s24.167 -6.83301 36.5 -4.5s24.333 7.66602 36 15.999s22.5 17.333 32.5 27s18.833 19 26.5 28
s13.834 15.5 18.501 19.5c6 6.66699 16 16.667 30 30s29.833 23.666 47.5 30.999s36.667 8.5 57 3.5s40.166 -22.167 59.499 -51.5c6.66699 -36 5.66699 -63.667 -3 -83s-19.834 -33.833 -33.501 -43.5s-27.5 -16.167 -41.5 -19.5s-22.667 -6.66602 -26 -9.99902
c-3.33301 0 -9.16602 -0.333008 -17.499 -1s-17.5 -3.5 -27.5 -8.5s-19.333 -12.833 -28 -23.5s-14.334 -26 -17.001 -46c-3.33301 -16.667 -2.33301 -30.667 3 -42s12.833 -20.666 22.5 -27.999s20.334 -12.666 32.001 -15.999s22.5 -5 32.5 -5
c10 -3.33301 21.5 -9 34.5 -17s24.5 -18.167 34.5 -30.5s16.667 -26.5 20 -42.5s0 -34 -10 -54c-20 -22.667 -38.333 -36.667 -55 -42s-32.834 -5.83301 -48.501 -1.5s-31 11.166 -46 20.499s-30.5 17 -46.5 23c-16 10 -32.167 14.667 -48.5 14
s-32.166 -5.16699 -47.499 -13.5s-30.333 -19.5 -45 -33.5s-28.334 -29 -41.001 -45c-10 -16 -22.167 -29.5 -36.5 -40.5s-29.666 -18.167 -45.999 -21.5s-33.166 -2.33301 -50.499 3s-34.333 16 -51 32c-16 16.667 -23.833 35 -23.5 55s6.16602 39.333 17.499 58
s27 35.667 47 51s41.333 26.333 64 33c22.667 3.33301 39.5 12.166 50.5 26.499s15.333 30.5 13 48.5s-11.833 35.667 -28.5 53s-41.334 31 -74.001 41c-16.667 4.66699 -30.667 10.5 -42 17.5s-20.666 14.667 -27.999 23s-12.833 17 -16.5 26s-6.5 17.833 -8.5 26.5
c-4 20 -3 41.333 3 64z" />
    <glyph glyph-name="y" unicode="y" 
d="M63 431c-3.33301 6.66699 -6 16.9951 -8 30.9951s-0.5 28.667 4.5 44s15 29.833 30 43.5s37.5 23.834 67.5 30.501c24.667 6.66699 45.667 8.16699 63 4.5s32 -10.5 44 -20.5s21.5 -22.167 28.5 -36.5s12.333 -29.166 16 -44.499s6 -30 7 -44s1.5 -25.333 1.5 -34
c-3.33301 -13.333 -4.83301 -25.666 -4.5 -36.999s3.5 -20.666 9.5 -27.999s15.167 -12.5 27.5 -15.5s28.5 -2.83301 48.5 0.5c20 -3.33301 33.333 -0.666016 40 8.00098s9.66699 20 9 34s-3.66699 29.5 -9 46.5s-9.66602 32.167 -12.999 45.5
c-6.66699 10 -11.834 24 -15.501 42s-3.5 36.333 0.5 55s13.5 35.334 28.5 50.001s37.5 23.667 67.5 27c24.667 -2 46.167 -8.16699 64.5 -18.5s33.833 -23 46.5 -38s22.834 -31.333 30.501 -49s13.334 -35 17.001 -52s5.5 -32.833 5.5 -47.5s-1 -26.334 -3 -35.001
c-2 -9.33301 -3 -17.333 -3 -24s0.666992 -14.5 2 -23.5s3.5 -19.667 6.5 -32s6.33301 -28.5 10 -48.5s7.5 -44.667 11.5 -74s8.33301 -65.333 13 -108c6.66699 -60 6 -109.333 -2 -148s-20 -70.167 -36 -94.5s-34 -43.333 -54 -57s-38.333 -25.5 -55 -35.5
c-13.333 -4.66699 -29 -9 -47 -13s-36.667 -6.33301 -56 -7s-38.5 0.5 -57.5 3.5s-36.167 9.16699 -51.5 18.5s-28.333 22.5 -39 39.5s-17 39.167 -19 66.5c-3.33301 36.667 2 63.5 16 80.5s30.667 27.833 50 32.5s38.5 5.5 57.5 2.5s31.833 -6.16699 38.5 -9.5
c7.33301 -7.33301 19.166 -9.83301 35.499 -7.5s31.166 13.5 44.499 33.5c6.66699 2.66699 13 9.16699 19 19.5s9.66699 22.5 11 36.5s-0.666992 28.833 -6 44.5s-15.5 30 -30.5 43s-36 23.833 -63 32.5s-61.833 13 -104.5 13c-30 0 -57.333 3.66699 -82 11
s-46.667 16.833 -66 28.5s-36.5 25.167 -51.5 40.5s-27.833 31 -38.5 47c-26 36.667 -45 79 -57 127z" />
    <glyph glyph-name="z" unicode="z" 
d="M169 581c62 24 119.005 42 171.005 54c22 5.33301 44.167 9.5 66.5 12.5s43.166 4 62.499 3s36.166 -4.33301 50.499 -10s25.166 -14.5 32.499 -26.5c16.667 -27.333 27 -51 31 -71s4.66699 -38.167 2 -54.5s-7.5 -31.833 -14.5 -46.5s-13.167 -30.334 -18.5 -47.001
c-4 -11.333 -7.66699 -24 -11 -38s-5.83301 -28.167 -7.5 -42.5s-2.33398 -27.833 -2.00098 -40.5s2.33301 -22.834 6 -30.501s9.33398 -12 17.001 -13s17.834 3.16699 30.501 12.5l58 28c16.667 8 31.5 13 44.5 15s24.5 0.666992 34.5 -4s19 -14 27 -28
c10.667 -14 14.167 -28.333 10.5 -43s-11.334 -28.834 -23.001 -42.501s-25.5 -26.5 -41.5 -38.5s-30.667 -22 -44 -30c-9.33301 -5.33301 -21.5 -13 -36.5 -23s-32 -20.167 -51 -30.5s-38.833 -19.833 -59.5 -28.5s-41.167 -14.5 -61.5 -17.5s-40 -2.16699 -59 2.5
s-35.5 15.334 -49.5 32.001c-11.333 16 -17.5 31 -18.5 45s0.5 26.667 4.5 38s9.66699 22 17 32s13.666 19 18.999 27c2 3.33301 6.16699 9.66602 12.5 18.999s13.166 20.166 20.499 32.499s14.333 26 21 41s11.334 29.833 14.001 44.5s2.16699 29.167 -1.5 43.5
s-11.834 26.833 -24.501 37.5c-10.667 14 -24.667 21.167 -42 21.5s-35.333 -2.66699 -54 -9s-36.167 -14.166 -52.5 -23.499s-28.5 -16.666 -36.5 -21.999c-5.33301 -2.66699 -14.333 -6.5 -27 -11.5s-26.834 -8.16699 -42.501 -9.5s-31.834 0.833984 -48.501 6.50098
s-32 17.834 -46 36.501c-9.33301 14.667 -13.5 29.5 -12.5 44.5s5 29.5 12 43.5s16.333 27.167 28 39.5s23.334 23.5 35.001 33.5s22.834 18 33.501 24s18.667 10 24 12z" />
  </font>
</defs>
</svg>
